<svg xmlns="http://www.w3.org/2000/svg" xmlns:xlink="http://www.w3.org/1999/xlink" data-stacking-context="true" aria-owns="block-canvas1" width="278" height="278" viewBox="402.5 60 400 400"><!-- Generated by dom-to-svg from http://ailogo.woa.com/ --><style></style><g data-stacking-layer="rootBackgroundAndBorders"></g><g data-stacking-layer="childStackingContextsWithNegativeStackLevels"></g><g data-stacking-layer="inFlowNonInlineNonPositionedDescendants"></g><g data-stacking-layer="nonPositionedFloats"></g><g data-stacking-layer="inFlowInlineLevelNonPositionedDescendants"></g><g data-stacking-layer="childStackingContextsWithStackLevelZeroAndPositionedDescendantsWithStackLevelZero"></g><g data-stacking-layer="childStackingContextsWithPositiveStackLevels"><g data-tag="div" id="block-canvas1" class="block-canvas notcopy top" data-z-index="2" data-stacking-context="true" aria-owns="div1 block1"><g data-stacking-layer="rootBackgroundAndBorders"><rect width="400" height="400" x="402.5" y="60" fill="rgb(49, 30, 63)"></rect></g><g data-tag="div" id="div1" data-z-index="auto" data-stacking-context="true" aria-owns="circle-bg1"><g data-tag="div" id="circle-bg1" class="circle-bg" data-z-index="auto" data-stacking-context="true" aria-owns="svg1"><g data-tag="svg" id="svg1" data-z-index="auto" data-stacking-context="true" mask="url(#mask-for-svg11)"><g data-stacking-layer="rootBackgroundAndBorders"></g><g data-stacking-layer="childStackingContextsWithNegativeStackLevels"></g><g data-stacking-layer="inFlowNonInlineNonPositionedDescendants"></g><g data-stacking-layer="nonPositionedFloats"></g><g data-stacking-layer="inFlowInlineLevelNonPositionedDescendants"></g><g data-stacking-layer="childStackingContextsWithStackLevelZeroAndPositionedDescendantsWithStackLevelZero"></g><g data-stacking-layer="childStackingContextsWithPositiveStackLevels"></g><mask id="mask-for-svg11"><rect width="278" height="278" x="458.5" y="116" fill="#ffffff"></rect></mask><g class="svg-content" data-view-box="0 0 200 200" data-width="200px" data-height="200px" transform="matrix(1.39 0 0 1.39 458.5 116)">
  <title style="null;fill:#F35593">波浪</title>
  <g id="svg1-容器组合" stroke="none" stroke-width="1" fill="none" fill-rule="evenodd" color="rgb(243, 85, 147)">
    <g id="svg1-几何容器" transform="matrix(1, 0, 0, 1, -651, -1199)" color="rgb(243, 85, 147)" fill="none" fill-rule="evenodd" stroke="none">
      <g id="svg1-容器备份-2" transform="matrix(1, 0, 0, 1, 550, 1174)" color="rgb(243, 85, 147)" fill="none" fill-rule="evenodd" stroke="none">
        
        <g id="svg1-编组" transform="matrix(1, 0, 0, 1, 101, 25)" stroke="rgb(243, 85, 147)" stroke-width="1.36514px" color="rgb(243, 85, 147)" fill="none" fill-rule="evenodd">
          <path d="M99.7645872,198.847339 C83.3554128,198.847339 72.4820183,177.654679 59.2324771,169.990459 C45.5609174,162.080367 21.8563303,162.990459 13.9462385,149.318899 C6.28018349,136.069358 18.6966972,116.173945 18.6966972,99.7647706 C18.6966972,83.3555963 6.28018349,63.4601835 13.9462385,50.2106422 C21.8563303,36.5390826 45.5627523,37.4491743 59.2324771,29.5390826 C72.4838532,21.8730275 83.3554128,0.682201835 99.7645872,0.682201835 C116.175596,0.682201835 127.048991,21.8730275 140.300367,29.5390826 C153.970092,37.4491743 177.674679,36.5390826 185.584771,50.2106422 C193.250826,63.4601835 180.836147,83.3555963 180.832477,99.7647706 C180.836147,116.173945 193.250826,136.069358 185.584771,149.318899 C177.674679,162.990459 153.970092,162.080367 140.300367,169.990459 C127.048991,177.656514 116.175596,198.847339 99.7645872,198.847339 Z" id="svg1-Stroke-1" style="null;stroke:#F35593" color="rgb(243, 85, 147)" fill="none" fill-rule="evenodd" stroke="rgb(243, 85, 147)" stroke-width="1.36514px"></path>
          <path d="M198.848073,99.7647706 C198.848073,116.173945 177.657248,127.049174 169.991193,140.298716 C162.082936,153.96844 162.993028,177.673028 149.321468,185.583119 C136.068257,193.249174 116.174679,180.834495 99.7655046,180.832661 C83.3563303,180.832661 63.4609174,193.249174 50.2113761,185.583119 C36.5398165,177.673028 37.4480734,153.966606 29.5398165,140.296881 C21.8737615,127.047339 0.68293578,116.173945 0.68293578,99.7647706 C0.68293578,83.3555963 21.8737615,72.480367 29.5398165,59.2326606 C37.4480734,45.5611009 36.5398165,21.8546789 50.2113761,13.946422 C63.4609174,6.27853211 83.3563303,18.6968807 99.7655046,18.6968807 C116.174679,18.6968807 136.068257,6.27853211 149.321468,13.946422 C162.993028,21.8546789 162.082936,45.5611009 169.991193,59.2326606 C177.657248,72.480367 198.848073,83.3555963 198.848073,99.7647706 Z" id="svg1-Stroke-3" style="null;stroke:#F35593" color="rgb(243, 85, 147)" fill="none" fill-rule="evenodd" stroke="rgb(243, 85, 147)" stroke-width="1.36514px"></path>
        </g>
      </g>
    </g>
  </g>
</g></g></g></g><g data-stacking-layer="childStackingContextsWithPositiveStackLevels"><g data-tag="div" id="block1" class="block right" data-z-index="2" data-stacking-context="true" mask="url(#mask-for-block11)" aria-owns="info1 info2"><mask id="mask-for-block11"><rect width="278" height="222.078125" x="458.5" y="143.953125" fill="#ffffff"></rect></mask><g data-tag="div" id="info1" class="info right-top" data-z-index="auto" data-stacking-context="true" aria-owns="icon1"><g data-tag="div" id="icon1" class="icon" data-z-index="auto" data-stacking-context="true" aria-owns="div2"><g data-tag="div" id="div2" data-z-index="auto" data-stacking-context="true" aria-owns="图层_1"><g data-tag="svg" id="图层_1" data-z-index="auto" data-stacking-context="true" mask="url(#mask-for-图层_11)"><g data-stacking-layer="rootBackgroundAndBorders"></g><g data-stacking-layer="childStackingContextsWithNegativeStackLevels"></g><g data-stacking-layer="inFlowNonInlineNonPositionedDescendants"></g><g data-stacking-layer="nonPositionedFloats"></g><g data-stacking-layer="inFlowInlineLevelNonPositionedDescendants"></g><g data-stacking-layer="childStackingContextsWithStackLevelZeroAndPositionedDescendantsWithStackLevelZero"></g><g data-stacking-layer="childStackingContextsWithPositiveStackLevels"></g><mask id="mask-for-图层_11"><rect width="103.1875" height="103.1875" x="545.890625" y="186.84375" fill="#ffffff"></rect></mask><g class="svg-content" data-view-box="0 0 78.00005 88.01341" data-width="" data-height="" transform="matrix(1.17241 0 0 1.17241 551.76 186.844)"><path d="M86.75,6a2,2,0,0,0-.25.0625l-50,13.28125a2.06035,2.06035,0,0,0-1.5,1.9375V70.25A13.966,13.966,0,1,0,39,80V43.5L85,31.28125V56.25A13.966,13.966,0,1,0,89,66V8A2.08745,2.08745,0,0,0,86.75,6ZM85,10.5625V27.15625l-46,12.25V22.8125ZM75,56A10,10,0,1,1,65,66,9.96978,9.96978,0,0,1,75,56ZM25,70A10,10,0,1,1,15,80,9.96985,9.96985,0,0,1,25,70Z" transform="matrix(1, 0, 0, 1, -11, -5.98659)" style="null;fill:#F35593" color="rgb(51, 51, 51)" fill="rgb(243, 85, 147)" stroke="none"></path></g></g></g></g></g><g data-tag="div" id="info2" class="info right-bottom" data-z-index="auto" data-stacking-context="true" aria-owns="info-group1"><g data-tag="div" id="info-group1" class="info-group" data-z-index="auto" data-stacking-context="true" aria-owns="name1"><g data-tag="div" id="name1" class="name" data-z-index="auto" data-stacking-context="true" aria-owns="div3"><g data-tag="div" id="div3" data-z-index="auto" data-stacking-context="true" aria-owns="div4"><g data-tag="div" id="div4" data-z-index="auto" data-stacking-context="true" aria-owns="span1"><g data-tag="span" id="span1" data-z-index="auto" data-stacking-context="true" aria-owns="name-svg1"><g data-tag="div" id="name-svg1" class="name-svg" data-z-index="auto" data-stacking-context="true" aria-owns="svg2"><g data-tag="svg" id="svg2" data-z-index="auto" data-stacking-context="true" mask="url(#mask-for-svg21)"><g data-stacking-layer="rootBackgroundAndBorders"></g><g data-stacking-layer="childStackingContextsWithNegativeStackLevels"></g><g data-stacking-layer="inFlowNonInlineNonPositionedDescendants"></g><g data-stacking-layer="nonPositionedFloats"></g><g data-stacking-layer="inFlowInlineLevelNonPositionedDescendants"></g><g data-stacking-layer="childStackingContextsWithStackLevelZeroAndPositionedDescendantsWithStackLevelZero"></g><g data-stacking-layer="childStackingContextsWithPositiveStackLevels"></g><mask id="mask-for-svg21"><rect width="140" height="35.078125" x="527.5" y="296.953125" fill="#ffffff"></rect></mask><g class="svg-content" data-view-box="" data-width="140" data-height="35.084" transform="matrix(1 0 0 1 527.5 296.953)"><path fill="rgb(243, 85, 147)" d="M1.82 20.78L2.21 20.30Q2.16 20.33 2.49 20.08L2.49 20.08Q3.00 19.68 2.94 19.71L2.94 19.71Q3.05 19.60 3.33 19.38L3.33 19.38Q3.61 19.10 3.78 18.98L3.78 18.98Q3.86 18.90 4.03 18.79L4.03 18.79L4.73 18.23Q4.93 18.09 4.96 18.09L4.96 18.09Q5.24 17.92 5.38 17.81L5.38 17.81L7.08 16.58Q7.20 16.49 7.20 16.41L7.20 16.41L7.20 14.34L7.17 13.97Q7.17 13.83 7.14 13.75L7.14 13.75L6.55 13.75L6.10 13.66Q6.05 13.61 5.94 13.55L5.94 13.55Q5.80 13.52 5.66 13.38L5.66 13.38L5.24 13.08Q5.07 13.02 4.98 12.91L4.98 12.91Q4.90 12.77 4.76 12.68L4.76 12.68Q4.56 12.49 4.54 12.32L4.54 12.32L4.45 12.18Q4.34 12.10 4.28 11.93L4.28 11.93Q4.34 11.87 4.37 11.79L4.37 11.79L4.40 11.73Q4.45 11.65 4.40 11.56L4.40 11.56Q4.45 11.37 4.40 11.20L4.40 11.20Q4.40 11.09 4.45 11.03L4.45 11.03L4.73 10.78Q4.68 10.72 4.65 10.72L4.65 10.72Q4.76 10.61 4.84 10.61L4.84 10.61Q5.01 10.53 5.40 10.42L5.40 10.42Q5.80 10.30 5.99 10.28L5.99 10.28Q6.05 10.25 6.13 10.25L6.13 10.25L6.30 10.22Q6.41 10.22 6.64 10.16L6.64 10.16L7.28 10.00Q7.25 9.91 7.25 9.60L7.25 9.60L7.22 5.85Q7.20 5.68 7.25 5.40L7.25 5.40Q7.28 5.29 7.28 5.10L7.28 5.10Q7.34 4.96 7.36 4.96L7.36 4.96Q7.39 4.96 7.42 4.98L7.42 4.98Q7.53 4.84 7.53 4.59L7.53 4.59Q7.59 4.48 7.64 4.59L7.64 4.59Q7.62 4.62 7.70 4.45L7.70 4.45Q7.70 4.40 7.73 4.40L7.73 4.40L7.84 4.26Q7.84 4.23 7.92 4.17L7.92 4.17L8.01 4.06Q8.09 4.03 8.09 3.92L8.09 3.92L8.26 3.84Q8.32 3.78 8.54 3.70L8.54 3.70Q8.57 3.67 8.65 3.67L8.65 3.67L8.74 3.64Q8.88 3.58 8.99 3.64L8.99 3.64Q9.18 3.72 9.30 3.89L9.30 3.89Q9.52 4.12 9.58 4.26L9.58 4.26Q9.60 4.26 9.63 4.28L9.63 4.28Q9.69 4.31 9.69 4.34L9.69 4.34Q10.02 4.45 10.33 4.76L10.33 4.76L10.42 4.84Q10.47 4.90 10.53 5.01L10.53 5.01Q10.56 5.07 10.61 5.12L10.61 5.12Q10.92 5.38 11.03 5.80L11.03 5.80Q11.06 5.85 11.06 5.99L11.06 5.99Q11.12 6.44 11.00 6.78L11.00 6.78Q11.00 6.83 10.98 6.89L10.98 6.89Q10.92 6.97 10.92 7.22L10.92 7.22L10.98 8.82Q10.95 8.88 10.95 8.93L10.95 8.93Q10.92 8.96 10.92 9.02L10.92 9.02Q10.92 9.13 11.03 9.13L11.03 9.13Q11.20 9.07 11.31 9.10L11.31 9.10Q11.34 9.10 11.34 9.13L11.34 9.13Q11.42 9.21 11.54 9.21L11.54 9.21L11.68 9.21Q11.87 9.21 11.93 9.35L11.93 9.35Q11.96 9.38 12.01 9.38L12.01 9.38L12.21 9.46Q12.57 9.58 12.74 9.91L12.74 9.91L12.96 10.28Q13.13 10.50 13.16 10.78L13.16 10.78Q13.19 11.14 13.10 11.56L13.10 11.56L13.02 11.82Q12.99 11.96 12.80 12.15L12.80 12.15Q12.66 12.35 12.29 12.52L12.29 12.52L11.09 12.80Q10.98 12.82 10.98 12.94L10.98 12.94Q10.95 13.19 10.95 13.75L10.95 13.75L10.95 14.06L11.12 14.06L11.20 14Q11.26 13.94 11.28 13.94L11.28 13.94L11.37 13.92Q11.42 13.86 11.48 13.92L11.48 13.92Q11.56 14 11.65 14L11.65 14L11.87 14.08Q11.93 14.14 11.98 14.14L11.98 14.14L12.40 14.36Q12.52 14.42 12.57 14.48L12.57 14.48Q12.57 14.59 12.63 14.70L12.63 14.70L12.68 14.76Q12.80 14.95 12.68 15.09L12.68 15.09Q12.66 15.18 12.68 15.29L12.68 15.29L12.71 15.51Q12.63 15.60 12.74 15.71L12.74 15.71L12.66 15.90Q12.66 15.96 12.60 16.02L12.60 16.02L12.54 16.07Q12.49 16.13 12.52 16.18L12.52 16.18Q12.52 16.27 12.54 16.30L12.54 16.30L12.07 16.69L11.98 16.80Q11.98 16.83 11.93 16.88L11.93 16.88L11.59 17.25Q11.34 17.58 11.12 17.72L11.12 17.72Q11.03 17.81 11.00 17.89L11.00 17.89Q10.98 17.98 10.98 18.17L10.98 18.17L11.00 20.61L11.12 24.36L11.12 25.62L11.14 25.73L11.12 27.78L10.98 28.98Q10.95 29.06 10.86 29.06L10.86 29.06Q10.75 29.04 10.58 29.09L10.58 29.09Q10.53 29.12 10.44 29.12L10.44 29.12Q10.36 29.09 10.30 29.15L10.30 29.15Q10.28 29.20 9.97 29.51L9.97 29.51Q9.91 29.54 9.86 29.60L9.86 29.60Q9.83 29.68 9.74 29.68L9.74 29.68L9.55 29.71Q9.13 29.76 9.02 29.74L9.02 29.74Q8.96 29.71 8.88 29.71L8.88 29.71L8.82 29.76Q8.71 29.88 8.65 29.85L8.65 29.85Q8.51 29.85 8.43 29.76L8.43 29.76Q8.34 29.68 8.15 29.62L8.15 29.62Q7.90 29.60 7.76 29.26L7.76 29.26Q7.76 29.23 7.73 29.20L7.73 29.20Q7.73 29.15 7.70 29.15L7.70 29.15Q7.64 29.01 7.56 29.01L7.56 29.01L7.48 28.78Q7.48 28.67 7.39 28.67L7.39 28.67L7.34 28.62Q7.34 28.56 7.28 28.45L7.28 28.45L7.36 28.28Q7.42 28.22 7.42 28.08L7.42 28.08L7.39 27.64Q7.39 27.50 7.28 27.47L7.28 27.47Q7.22 27.47 7.22 27.44L7.22 27.44Q7.20 27.38 6.94 27.19L6.94 27.19Q6.83 27.13 6.83 27.05L6.83 27.05Q6.83 26.99 6.78 26.91L6.78 26.91L6.61 26.68Q6.38 26.52 6.30 26.40L6.30 26.40L6.16 26.26L6.30 26.29L6.30 26.24Q6.30 26.21 6.27 26.21L6.27 26.21L6.10 25.98Q6.10 25.93 6.05 25.93L6.05 25.93Q6.05 25.90 5.99 25.87L5.99 25.87Q5.96 25.84 5.94 25.84L5.94 25.84Q5.88 25.82 5.82 25.70L5.82 25.70L5.40 25.20Q5.43 25.17 5.43 25.14L5.43 25.14Q5.15 24.86 5.21 24.89L5.21 24.89L5.21 24.78Q5.21 24.75 5.15 24.70L5.15 24.70L5.10 24.61Q5.07 24.53 4.93 24.39L4.93 24.39Q4.84 24.30 4.87 24.28L4.87 24.28Q4.87 24.25 4.84 24.22L4.84 24.22Q4.59 23.91 4.42 23.80L4.42 23.80Q4.31 23.69 4.14 23.58L4.14 23.58L3.75 23.38L3.56 23.32L3.44 23.18Q3.28 23.10 3.30 23.13L3.30 23.13Q3.22 23.13 3.22 23.07L3.22 23.07Q3.19 23.10 3.39 23.02L3.39 23.02Q3.33 22.96 3.33 22.93L3.33 22.93L3.36 22.93Q3.44 22.96 3.58 23.04L3.58 23.04Q3.75 23.13 3.81 23.18L3.81 23.18Q3.92 23.24 3.98 23.24L3.98 23.24Q4.76 23.38 5.29 23.52L5.29 23.52L6.36 23.86Q6.69 23.97 7.08 24.16L7.08 24.16L7.28 24.25Q7.31 24.22 7.31 24.16L7.31 24.16Q7.34 24.11 7.34 24.02L7.34 24.02L7.22 21.03Q7.14 21.03 7.08 21.08L7.08 21.08L6.33 21.67Q6.05 21.95 5.88 22.09L5.88 22.09Q5.80 22.18 5.74 22.32L5.74 22.32Q5.71 22.34 5.71 22.40L5.71 22.40Q5.63 22.48 5.60 22.48L5.60 22.48L5.43 22.57Q5.40 22.57 5.35 22.62L5.35 22.62Q5.26 22.76 5.12 22.82L5.12 22.82Q5.01 22.88 4.79 22.93L4.79 22.93L4.70 22.93Q4.62 22.99 4.51 22.99L4.51 22.99Q4.48 22.93 4.42 22.99L4.42 22.99L4.23 22.99L3.89 22.90L3.58 22.76Q3.33 22.65 3.11 22.62L3.11 22.62Q2.77 22.51 2.60 22.40L2.60 22.40Q2.52 22.32 2.49 22.23L2.49 22.23L2.49 22.18L2.44 22.12L2.38 22.12Q2.18 21.98 2.13 21.78L2.13 21.78Q2.07 21.56 1.93 21.48L1.93 21.48L1.85 21.39Q1.74 21.17 1.74 20.97L1.74 20.97Q1.79 20.80 1.82 20.78L1.82 20.78ZM12.99 17.56L13.10 17.56L13.19 17.50Q13.36 17.36 13.75 17.42L13.75 17.42L14.14 17.64Q14.22 17.72 14.34 17.72L14.34 17.72Q14.36 17.75 14.45 17.75L14.45 17.75Q14.59 17.89 14.56 17.84L14.56 17.84L14.95 18.14Q15.01 18.20 15.09 18.20L15.09 18.20L18.23 17.75L21.08 17.42Q21.17 17.39 21.34 17.39L21.34 17.39L22.48 17.28Q22.74 17.22 22.82 17.14L22.82 17.14L22.93 17.11Q23.10 17.25 23.32 17.19L23.32 17.19L23.69 17.19Q23.80 17.16 23.88 17.25L23.88 17.25L24.02 17.44L24.36 17.78Q24.42 17.84 24.44 17.84L24.44 17.84Q24.61 17.95 24.70 18.03L24.70 18.03L24.89 18.12L25.17 18.42Q25.28 18.51 25.54 18.82L25.54 18.82Q25.68 18.96 25.65 19.12L25.65 19.12L25.68 19.32Q25.70 19.38 25.70 19.52L25.70 19.52L25.73 19.74Q25.73 19.77 25.70 19.80L25.70 19.80Q25.62 20.13 25.37 20.27L25.37 20.27Q25.17 20.41 25.03 20.41L25.03 20.41Q24.98 20.52 24.98 20.58L24.98 20.58L24.92 20.83Q24.86 21 24.81 21.06L24.81 21.06Q24.78 21.08 24.78 21.17L24.78 21.17Q24.72 21.31 24.67 21.64L24.67 21.64Q24.61 21.87 24.56 21.95L24.56 21.95Q24.47 22.12 24.47 22.32L24.47 22.32L24.44 22.40Q24.44 22.48 24.42 22.51L24.42 22.51Q24.39 22.74 24.28 23.04L24.28 23.04Q24.28 23.13 24.25 23.16L24.25 23.16L23.83 25.31Q23.83 25.40 23.77 25.59L23.77 25.59L23.38 27.44L23.32 27.55Q23.30 27.58 23.32 27.66L23.32 27.66Q23.35 27.75 23.30 27.80L23.30 27.80L23.27 27.86Q23.21 27.97 23.24 28.08L23.24 28.08Q23.30 28.17 23.24 28.28L23.24 28.28Q23.18 28.45 23.18 28.56L23.18 28.56L23.18 28.62L23.13 28.62Q23.07 28.62 23.04 28.64L23.04 28.64Q22.99 28.70 22.96 28.70L22.96 28.70L22.76 29.04Q22.74 29.04 22.68 29.09L22.68 29.09L22.60 29.15Q22.51 29.15 22.29 29.20L22.29 29.20Q22.20 29.23 22.04 29.23L22.04 29.23Q21.92 29.23 21.76 29.18L21.76 29.18L21.53 29.18Q21.20 29.18 20.89 29.06L20.89 29.06L20.44 28.87L20.30 28.95Q20.30 28.90 20.05 28.64L20.05 28.64L19.88 28.64Q19.80 28.64 19.77 28.67L19.77 28.67L19.32 28.76L18.20 28.78L17.16 28.87Q17.00 28.87 16.94 28.90L16.94 28.90Q16.77 28.95 16.66 28.95L16.66 28.95L15.99 29.04Q16.02 29.01 15.85 29.09L15.85 29.09Q15.82 29.12 15.74 29.12L15.74 29.12Q15.65 29.06 15.57 29.12L15.57 29.12Q15.46 29.12 15.40 29.15L15.40 29.15Q15.32 29.15 15.26 29.18L15.26 29.18Q15.18 29.20 15.09 29.18L15.09 29.18Q15.04 29.12 14.95 29.12L14.95 29.12L14.76 29.01Q14.73 28.98 14.70 28.98L14.70 28.98L14.62 29.01Q14.59 29.01 14.59 28.98L14.59 28.98Q14.59 28.95 14.53 28.90L14.53 28.90Q14.53 28.84 14.45 28.84L14.45 28.84L14.36 28.84Q14.36 28.81 14.31 28.76L14.31 28.76Q14.25 28.67 14.17 28.64L14.17 28.64Q14.06 28.48 13.94 28.48L13.94 28.48Q13.94 28.45 13.92 28.42L13.92 28.42Q13.92 28.39 13.89 28.39L13.89 28.39Q13.89 28.34 13.83 28.34L13.83 28.34Q13.75 28.28 13.69 28.20L13.69 28.20Q13.61 28.08 13.50 28L13.50 28Q13.38 27.92 13.38 27.72L13.38 27.72Q13.41 27.66 13.41 27.61L13.41 27.61L13.44 27.50Q13.44 27.36 13.41 27.27L13.41 27.27L13.24 26.32Q13.19 26.15 13.13 25.70L13.13 25.70L12.77 23.35L12.43 19.66L12.40 18.68Q12.40 18.62 12.43 18.59L12.43 18.59Q12.49 18.48 12.46 18.45L12.46 18.45Q12.40 18.12 12.71 17.89L12.71 17.89L12.85 17.81Q12.88 17.78 12.88 17.75L12.88 17.75L12.88 17.72Q12.88 17.70 12.94 17.64L12.94 17.64Q12.99 17.58 12.99 17.56L12.99 17.56ZM17.11 26.01L20.33 25.70Q20.52 24.92 20.52 24.64L20.52 24.64L20.30 24.64L19.71 24.75Q19.32 24.81 19.12 24.81L19.12 24.81L17.58 25.06Q17.50 25.06 17.44 25.09L17.44 25.09Q17.36 25.09 17.25 25.14L17.25 25.14Q17.14 25.14 17.08 25.20L17.08 25.20L16.94 25.20Q16.83 25.09 16.72 25.14L16.72 25.14Q16.66 25.06 16.52 25.03L16.52 25.03L16.41 24.98L16.35 25.00L16.38 25.03Q16.38 25.20 16.44 25.48L16.44 25.48L16.52 26.04L16.66 26.04Q16.97 26.04 17.11 26.01L17.11 26.01ZM16.60 21.20L16.02 21.08Q15.99 21.06 15.90 21.08L15.90 21.08L16.04 22.26L18.51 21.92Q18.76 21.87 19.38 21.81L19.38 21.81L19.94 21.76Q20.30 21.70 20.47 21.70L20.47 21.70Q20.52 21.64 20.55 21.70L20.55 21.70Q20.64 21.73 20.69 21.67L20.69 21.67Q20.72 21.64 20.80 21.64L20.80 21.64Q20.92 21.64 20.94 21.62L20.94 21.62Q21.14 21.56 21.17 21.42L21.17 21.42Q21.20 21.17 21.31 20.72L21.31 20.72Q21.31 20.52 21.25 20.41L21.25 20.41L18.37 20.75Q18.26 20.75 18.03 20.80L18.03 20.80L17.70 20.86Q17.42 20.92 17.30 20.92L17.30 20.92L17.14 21Q16.86 21.14 16.80 21.14L16.80 21.14Q16.77 21.14 16.77 21.17L16.77 21.17Q16.74 21.20 16.60 21.20L16.60 21.20ZM13.24 9.94L13.41 6.08Q13.38 5.96 13.52 5.82L13.52 5.82L13.61 5.77Q13.66 5.71 13.69 5.71L13.69 5.71Q13.78 5.66 13.83 5.57L13.83 5.57Q13.89 5.54 13.94 5.43L13.94 5.43Q14.03 5.29 14.08 5.26L14.08 5.26L14.17 5.15Q14.20 5.12 14.22 5.12L14.22 5.12L14.28 5.10L14.36 4.96Q14.70 4.73 14.87 4.68L14.87 4.68Q14.98 4.65 15.09 4.68L15.09 4.68L15.60 5.15Q15.62 5.24 15.76 5.29L15.76 5.29Q15.90 5.35 16.13 5.52L16.13 5.52Q16.30 5.63 16.35 5.71L16.35 5.71L16.74 6.13L16.83 6.30L16.97 6.78Q17.02 7.06 16.97 7.36L16.97 7.36Q16.97 7.42 16.91 7.53L16.91 7.53L16.83 7.62Q16.74 7.70 16.74 7.84L16.74 7.84Q16.72 8.01 16.72 8.29L16.72 8.29L16.69 9.44Q16.72 9.52 16.72 9.72L16.72 9.72L16.74 9.72Q16.77 9.72 16.77 9.69L16.77 9.69Q17.56 9.02 17.92 8.68L17.92 8.68Q18.09 8.57 18.12 8.48L18.12 8.48L18.48 8.09L20.92 5.88Q21.03 5.77 21.08 5.57L21.08 5.57Q21.20 5.57 21.22 5.46L21.22 5.46L21.34 5.60Q21.39 5.57 21.39 5.49L21.39 5.49L21.39 5.35Q21.48 5.35 21.50 5.38L21.50 5.38Q21.50 5.35 21.53 5.35L21.53 5.35Q21.62 5.21 21.78 5.26L21.78 5.26L22.32 5.18Q22.40 5.12 22.46 5.18L22.46 5.18Q22.54 5.21 22.62 5.18L22.62 5.18Q22.85 5.18 22.90 5.35L22.90 5.35Q22.96 5.43 23.02 5.63L23.02 5.63Q23.10 5.80 23.13 5.91L23.13 5.91Q23.21 6.10 23.38 6.27L23.38 6.27Q23.44 6.33 23.46 6.38L23.46 6.38L23.55 6.50L23.63 7.25Q23.69 7.42 23.60 7.53L23.60 7.53L23.44 7.95Q23.35 8.12 23.13 8.20L23.13 8.20L22.99 8.26Q22.88 8.29 22.76 8.40L22.76 8.40L22.32 8.76L22.34 8.96Q22.37 8.96 22.46 9.13L22.46 9.13L22.54 9.32Q22.65 9.55 22.74 9.63L22.74 9.63Q22.74 9.72 22.88 9.86L22.88 9.86L23.38 10.44L23.46 10.58Q23.44 10.58 23.49 10.53L23.49 10.53Q23.52 10.53 23.58 10.58L23.58 10.58Q23.60 10.61 23.60 10.64L23.60 10.64L23.72 10.98Q23.80 11.20 23.83 11.34L23.83 11.34Q23.83 11.42 23.91 11.48L23.91 11.48L24.08 11.73L24.14 11.90L24.36 11.93Q24.44 12.18 24.44 12.24L24.44 12.24Q24.56 12.57 24.64 12.74L24.64 12.74L24.75 12.94Q24.81 12.99 24.81 13.05L24.81 13.05Q24.86 13.33 24.92 13.47L24.92 13.47Q24.92 13.50 24.98 13.55L24.98 13.55L25.12 13.55L25.09 13.69Q25.03 13.80 25.12 13.89L25.12 13.89Q25.20 13.92 25.23 14L25.23 14Q25.31 14 25.26 14.08L25.26 14.08Q25.23 14.14 25.28 14.28L25.28 14.28Q25.26 14.36 25.14 14.48L25.14 14.48Q25.06 14.53 25.03 14.64L25.03 14.64Q25.00 14.67 24.98 14.67L24.98 14.67Q24.89 14.76 24.89 14.81L24.89 14.81L24.89 14.98Q24.92 15.04 25.00 15.04L25.00 15.04Q25.03 15.15 24.98 15.37L24.98 15.37Q25.00 15.37 25.03 15.40L25.03 15.40Q25.06 15.40 25.06 15.43L25.06 15.43Q24.98 15.48 24.86 15.60L24.86 15.60Q24.53 15.79 24.47 15.85L24.47 15.85Q24.16 16.07 23.86 16.18L23.86 16.18Q23.49 16.38 23.18 16.44L23.18 16.44Q22.40 16.60 22.29 16.60L22.29 16.60L21.59 16.69Q21.25 16.74 20.58 16.80L20.58 16.80Q19.74 16.86 19.35 16.91L19.35 16.91Q19.07 16.94 18.54 16.94L18.54 16.94L17.75 16.97L17.14 16.94Q16.52 16.91 15.76 16.72L15.76 16.72Q15.32 16.60 14.87 16.32L14.87 16.32L14.59 16.13Q14.22 15.90 14.03 15.62L14.03 15.62Q13.86 15.40 13.80 15.29L13.80 15.29Q13.47 14.67 13.44 14.17L13.44 14.17L13.36 13.47Q13.27 12.74 13.27 12.01L13.27 12.01L13.24 9.94ZM16.80 12.26L16.80 12.60Q16.74 12.66 16.74 12.80L16.74 12.80L16.83 13.24Q16.83 13.30 16.91 13.36L16.91 13.36L16.97 13.36Q17.33 13.47 17.84 13.47L17.84 13.47Q18.54 13.47 18.87 13.44L18.87 13.44Q19.12 13.44 19.24 13.41L19.24 13.41Q19.40 13.38 19.71 13.38L19.71 13.38L20.19 13.36Q21.17 13.24 21.56 13.16L21.56 13.16Q21.67 13.16 21.73 13.05L21.73 13.05L21.84 12.40L21.84 11.62Q21.84 11.42 21.87 11.31L21.87 11.31Q21.90 11.06 21.90 10.56L21.90 10.56L21.95 9.44Q21.95 9.18 22.01 9.07L22.01 9.07L22.01 9.02L21.73 9.18L21.42 9.58Q21.36 9.49 21.25 9.60L21.25 9.60L19.52 10.92L19.24 11.00Q19.21 11.03 19.15 11.03L19.15 11.03Q19.04 11.03 18.96 11.12L18.96 11.12Q18.93 11.12 18.84 11.17L18.84 11.17L18.12 11.59Q18.03 11.56 17.92 11.62L17.92 11.62Q17.86 11.68 17.84 11.68L17.84 11.68Q17.72 11.70 17.56 11.82L17.56 11.82L16.83 12.24Q16.80 12.24 16.80 12.26L16.80 12.26ZM54.57 27.66Q54.57 27.72 54.49 27.78L54.49 27.78L54.38 27.80Q54.35 27.89 54.38 27.97L54.38 27.97L54.38 28.03Q54.29 28.17 54.43 28.31L54.43 28.31Q54.54 28.36 54.40 28.42L54.40 28.42Q54.38 28.42 54.35 28.45L54.35 28.45Q54.29 28.45 54.26 28.48L54.26 28.48Q53.82 28.62 53.70 28.67L53.70 28.67Q53.73 28.64 53.56 28.73L53.56 28.73Q53.51 28.78 53.40 28.84L53.40 28.84L52.78 29.04Q52.56 29.09 52.44 29.15L52.44 29.15Q52.30 29.26 52.08 29.34L52.08 29.34L51.74 29.51Q51.63 29.60 51.52 29.62L51.52 29.62L51.30 29.71Q50.90 29.76 50.74 29.82L50.74 29.82Q50.62 29.82 50.57 29.85L50.57 29.85L50.43 29.90L49.59 29.96Q49.45 29.96 49.39 29.90L49.39 29.90Q49.36 29.88 49.31 29.88L49.31 29.88L49.03 29.88Q48.89 29.90 48.75 29.82L48.75 29.82L48.69 29.82Q48.58 29.85 48.47 29.82L48.47 29.82L48.02 29.57Q47.96 29.51 47.57 29.26L47.57 29.26Q47.40 29.18 47.32 29.01L47.32 29.01Q47.32 28.98 47.29 28.95L47.29 28.95Q47.26 28.90 47.24 28.90L47.24 28.90L46.56 28.25Q46.40 28.14 46.28 27.97L46.28 27.97L46.09 27.80Q46.03 27.80 45.98 27.69L45.98 27.69L45.81 27.36Q45.75 27.19 45.53 26.96L45.53 26.96Q45.44 26.85 45.25 26.66L45.25 26.66Q45.08 26.43 44.97 26.35L44.97 26.35Q44.13 25.51 43.48 24.75L43.48 24.75L42.78 24.00L41.61 22.60Q41.52 22.51 41.50 22.51L41.50 22.51Q41.44 22.57 41.44 22.60L41.44 22.60L41.10 23.21L40.66 23.91L39.62 25.34Q39.40 25.62 39.26 25.76L39.26 25.76L38.44 26.60Q38.19 26.85 38.02 26.96L38.02 26.96L37.58 27.38Q37.32 27.64 37.02 27.86L37.02 27.86Q36.46 28.34 36.09 28.53L36.09 28.53L35.73 28.73L35.64 28.73Q35.25 28.90 35.06 28.95L35.06 28.95Q34.78 29.06 34.64 29.09L34.64 29.09L33.66 29.26Q33.57 29.29 33.35 29.29L33.35 29.29L32.82 29.29Q32.82 29.26 32.87 29.26L32.87 29.26L33.35 29.20Q33.26 29.12 33.21 29.15L33.21 29.15Q33.18 29.12 33.15 29.12L33.15 29.12Q33.32 29.04 33.29 29.06L33.29 29.06L33.21 29.06Q32.90 29.06 32.73 29.09L32.73 29.09Q32.40 29.15 32.26 29.20L32.26 29.20L32.17 29.26Q31.95 29.32 31.84 29.40L31.84 29.40Q32.00 29.32 31.44 29.54L31.44 29.54L31.42 29.54Q31.25 29.62 30.88 29.68L30.88 29.68Q30.83 29.68 30.72 29.74L30.72 29.74Q30.69 29.76 30.24 29.90L30.24 29.90L30.18 29.90Q30.21 29.85 30.35 29.79L30.35 29.79L30.49 29.65Q30.60 29.62 30.77 29.46L30.77 29.46L30.80 29.43Q30.77 29.40 30.86 29.32L30.86 29.32L30.80 29.26Q30.74 29.20 30.72 29.20L30.72 29.20L31.14 29.12Q31.16 29.12 31.22 29.06L31.22 29.06Q31.42 28.84 31.81 28.45L31.81 28.45L32.40 27.83Q32.84 27.38 33.26 26.88L33.26 26.88L33.85 26.26L34.78 25.20Q34.97 24.98 35.36 24.47L35.36 24.47Q35.81 23.91 36.04 23.60L36.04 23.60L36.76 22.48Q37.10 21.95 37.49 21.11L37.49 21.11Q37.52 21.08 37.52 21.03L37.52 21.03L37.55 20.89Q37.44 20.89 37.38 20.92L37.38 20.92L34.19 21.34Q34.08 21.34 33.99 21.42L33.99 21.42Q33.77 21.56 33.46 21.62L33.46 21.62Q33.32 21.67 33.24 21.64L33.24 21.64L33.15 21.67Q33.07 21.70 32.98 21.67L32.98 21.67L32.79 21.67L32.51 21.53Q32.34 21.39 32.06 21.39L32.06 21.39Q31.92 21.39 31.84 21.36L31.84 21.36Q31.67 21.25 31.58 21.25L31.58 21.25Q31.56 21.25 31.53 21.22L31.53 21.22Q31.42 21.14 31.11 21.08L31.11 21.08L30.66 20.92L30.49 20.78Q30.41 20.69 30.21 20.30L30.21 20.30Q30.21 20.22 30.16 19.99L30.16 19.99L30.07 19.60L30.10 19.32Q30.16 19.26 30.24 19.26L30.24 19.26L30.32 19.10L30.27 19.04L30.32 19.04Q30.27 18.93 30.32 18.84L30.32 18.84Q30.32 18.73 30.38 18.70L30.38 18.70Q30.41 18.70 30.41 18.65L30.41 18.65Q30.44 18.51 30.60 18.40L30.60 18.40Q30.69 18.34 30.74 18.26L30.74 18.26Q30.83 18.12 30.94 18.09L30.94 18.09L31.33 17.89L31.33 17.72Q31.39 17.67 31.47 17.72L31.47 17.72Q31.72 17.72 31.84 17.70L31.84 17.70L34.41 17.36Q34.97 17.30 35.20 17.25L35.20 17.25L36.32 17.05L37.77 16.86Q38.11 16.80 38.67 16.74L38.67 16.74L38.72 16.74Q38.75 16.72 38.75 16.66L38.75 16.66L38.84 16.27Q38.89 15.88 38.89 15.65L38.89 15.65Q38.92 15.32 38.84 14.92L38.84 14.92L38.84 14.67L38.98 14.62Q39.00 14.59 38.98 14.53L38.98 14.53Q38.95 14.50 38.95 14.48L38.95 14.48L39.03 14.42Q39.17 14.36 39.20 14.22L39.20 14.22L39.20 14.14Q39.26 14.14 39.28 14.08L39.28 14.08Q39.28 14.06 39.31 14.06L39.31 14.06L39.42 14L39.42 12.49Q39.42 11.56 39.40 11.09L39.40 11.09L39.37 9.32L39.40 6.78Q39.40 6.27 39.37 6.02L39.37 6.02L39.37 5.99Q39.34 5.85 39.34 5.63L39.34 5.63L39.34 5.43L39.48 5.49Q39.56 5.32 39.45 5.10L39.45 5.10Q39.48 5.04 39.56 5.04L39.56 5.04Q39.68 5.10 39.73 5.10L39.73 5.10L39.82 5.01Q39.82 4.90 39.96 4.70L39.96 4.70Q40.12 4.54 40.21 4.42L40.21 4.42Q40.32 4.28 40.46 4.31L40.46 4.31L40.63 4.17Q40.74 4.17 40.77 4.09L40.77 4.09L41.19 3.98Q41.30 3.95 41.52 3.95L41.52 3.95L42.11 3.98Q42.36 3.95 42.56 4.17L42.56 4.17L42.81 4.48Q43.12 4.79 43.34 5.12L43.34 5.12L43.68 5.82Q43.79 6.08 43.79 6.47L43.79 6.47Q43.79 6.66 43.68 6.86L43.68 6.86Q43.60 6.97 43.60 7.20L43.60 7.20L43.65 10.53L43.65 12.80L43.62 13.27Q43.62 13.33 43.65 13.36L43.65 13.36Q43.68 13.38 43.68 13.50L43.68 13.50Q43.65 13.55 43.65 13.66L43.65 13.66Q43.68 13.69 43.68 13.72L43.68 13.72Q43.60 13.92 43.60 14.56L43.60 14.56Q43.60 14.73 43.54 14.95L43.54 14.95Q43.54 15.04 43.43 15.15L43.43 15.15Q43.32 15.20 43.23 15.18L43.23 15.18Q43.20 15.15 43.18 15.15L43.18 15.15L43.15 15.18Q43.18 15.23 43.18 15.34L43.18 15.34L43.20 15.62Q43.26 15.71 43.23 15.76L43.23 15.76L43.23 15.85Q43.29 15.93 43.23 15.99L43.23 15.99Q43.20 16.02 43.20 16.16L43.20 16.16L50.20 15.32Q50.26 15.26 50.37 15.26L50.37 15.26Q50.48 15.29 50.60 15.26L50.60 15.26Q50.88 15.15 51.04 15.12L51.04 15.12L51.55 15.04Q51.80 14.98 51.94 15.20L51.94 15.20L52.16 15.43Q52.30 15.71 52.28 15.62L52.28 15.62Q52.30 15.68 52.53 15.90L52.53 15.90Q52.92 16.44 52.81 16.24L52.81 16.24Q52.98 16.46 53.03 16.60L53.03 16.60Q53.26 17.25 53.26 17.33L53.26 17.33L53.26 17.53Q53.26 17.81 52.95 18.20L52.95 18.20Q52.86 18.26 52.75 18.42L52.75 18.42Q52.67 18.62 52.50 18.65L52.50 18.65Q52.33 18.73 52.19 18.87L52.19 18.87Q52.14 18.90 52.02 19.01L52.02 19.01L51.83 19.18Q51.72 19.24 51.66 19.32L51.66 19.32L51.41 19.24L51.32 19.29L51.32 19.38Q51.27 19.43 51.21 19.40L51.21 19.40Q51.16 19.35 51.07 19.35L51.07 19.35Q50.96 19.32 50.93 19.29L50.93 19.29Q50.93 19.26 50.90 19.26L50.90 19.26Q50.96 19.24 50.65 19.24L50.65 19.24Q50.57 19.26 50.40 19.26L50.40 19.26L48.41 19.40Q48.27 19.40 48.02 19.46L48.02 19.46L45.56 19.77Q45.47 19.77 45.36 19.82L45.36 19.82Q45.36 19.85 45.39 19.88L45.39 19.88Q45.42 19.94 45.50 20.02L45.50 20.02L46.73 21.42Q46.76 21.42 46.79 21.45L46.79 21.45Q46.84 21.48 46.84 21.50L46.84 21.50Q47.15 21.67 47.52 22.04L47.52 22.04L50.60 24.53L50.79 24.64L51.30 25.03L51.46 25.12Q51.60 25.14 51.72 25.28L51.72 25.28L51.80 25.37Q51.86 25.37 51.97 25.42L51.97 25.42L52.58 25.62Q52.61 25.54 52.72 25.59L52.72 25.59L52.72 25.65Q52.70 25.62 52.86 25.70L52.86 25.70Q52.89 25.70 52.92 25.68L52.92 25.68Q52.95 25.65 53.03 25.65L53.03 25.65Q53.00 25.68 53.00 25.73L53.00 25.73L53.09 25.73Q53.14 25.79 53.42 25.93L53.42 25.93Q53.82 26.10 54.01 26.21L54.01 26.21Q54.12 26.26 54.18 26.24L54.18 26.24Q54.26 26.24 54.26 26.29L54.26 26.29Q54.32 26.38 54.35 26.38L54.35 26.38Q54.43 26.40 54.60 26.57L54.60 26.57Q54.63 26.57 54.63 26.66L54.63 26.66Q54.63 26.77 54.66 26.80L54.66 26.80Q54.66 26.88 54.71 26.91L54.71 26.91L54.68 27.02Q54.68 27.22 54.60 27.47L54.60 27.47L54.60 27.52Q54.54 27.61 54.57 27.66L54.57 27.66ZM45.33 7.34L45.39 7.25L45.50 7.25Q45.56 7.25 45.56 7.17L45.56 7.17Q45.50 7.17 45.50 7.11L45.50 7.11Q45.44 7.11 45.44 7.06L45.44 7.06L45.42 7.03L45.56 7.03L45.53 6.89Q45.44 6.92 45.72 6.78L45.72 6.78Q45.81 6.75 45.84 6.66L45.84 6.66L46.09 6.47Q46.17 6.38 46.23 6.36L46.23 6.36L46.31 6.30Q46.37 6.24 46.40 6.24L46.40 6.24Q46.54 6.19 46.56 6.08L46.56 6.08Q46.59 6.02 46.73 5.96L46.73 5.96Q47.07 5.91 47.29 5.91L47.29 5.91Q47.68 5.91 47.91 5.94L47.91 5.94Q47.99 5.94 48.10 5.99L48.10 5.99L48.30 6.08Q48.36 6.08 48.58 6.24L48.58 6.24L49.31 6.72Q49.81 7.17 50.01 7.45L50.01 7.45Q50.06 7.50 50.29 7.90L50.29 7.90Q50.57 8.37 50.60 8.46L50.60 8.46L50.71 8.74Q50.93 9.35 51.02 9.66L51.02 9.66L51.10 10.19L51.07 11.00Q51.07 11.14 51.04 11.23L51.04 11.23Q51.02 11.26 51.02 11.31L51.02 11.31Q50.96 11.45 50.82 11.45L50.82 11.45L50.79 11.48Q50.68 11.59 50.68 11.68L50.68 11.68Q50.60 11.93 50.46 12.01L50.46 12.01L50.15 12.26Q50.01 12.26 49.92 12.35L49.92 12.35Q49.87 12.35 49.84 12.32L49.84 12.32Q49.78 12.26 49.73 12.26L49.73 12.26Q49.64 12.24 49.62 12.32L49.62 12.32Q49.59 12.32 49.59 12.35L49.59 12.35Q49.14 12.12 49.25 12.24L49.25 12.24Q49.22 12.29 49.14 12.38L49.14 12.38L49 12.54L48.75 12.60L48.66 12.66Q48.55 12.71 48.50 12.66L48.50 12.66Q48.50 12.63 48.47 12.63L48.47 12.63L48.10 12.80Q48.02 12.77 47.82 12.82L47.82 12.82Q47.77 12.82 47.71 12.77L47.71 12.77Q47.60 12.68 47.49 12.68L47.49 12.68Q47.35 12.68 47.12 12.52L47.12 12.52L46.54 11.87L46.42 11.79Q46.23 11.40 46.28 11.48L46.28 11.48Q46.26 11.45 46.26 11.40L46.26 11.40Q46.31 11.26 46.26 11.00L46.26 11.00L46.17 10.64Q46.03 10.14 45.84 9.77L45.84 9.77L45.78 9.63Q45.70 9.38 45.42 8.88L45.42 8.88L45.16 8.40Q45.14 8.18 45.00 7.92L45.00 7.92Q45.05 7.87 45.05 7.76L45.05 7.76Q45.08 7.64 45.08 7.45L45.08 7.45L45.19 7.45Q45.22 7.36 45.33 7.34L45.33 7.34ZM32.54 10.25L32.54 10.05L32.62 9.94Q32.70 9.91 32.65 9.80L32.65 9.80Q32.73 9.80 32.76 9.77L32.76 9.77Q32.98 9.63 33.04 9.63L33.04 9.63L33.21 9.46Q33.21 9.41 33.26 9.41L33.26 9.41Q33.29 9.44 33.35 9.38L33.35 9.38L33.38 9.35Q33.40 9.41 33.40 9.18L33.40 9.18L33.43 8.96Q33.77 9.07 33.63 9.07L33.63 9.07Q33.63 8.93 33.60 8.88L33.60 8.88L33.91 9.02Q33.94 8.99 33.94 8.93L33.94 8.93L33.96 8.85Q33.96 8.76 34.05 8.76L34.05 8.76L34.19 8.65Q34.24 8.71 34.27 8.71L34.27 8.71Q34.44 8.76 34.52 8.76L34.52 8.76L34.86 8.79L35.14 8.90Q35.31 9.07 35.50 9.16L35.50 9.16Q35.53 9.16 35.56 9.18L35.56 9.18Q35.70 9.32 35.73 9.41L35.73 9.41Q35.78 9.60 35.90 9.63L35.90 9.63Q35.95 9.63 35.95 9.69L35.95 9.69L36.04 9.94L36.48 10.64L36.48 10.70Q36.54 10.70 36.62 10.61L36.62 10.61L36.99 10.39Q37.60 9.97 38.08 9.77L38.08 9.77L38.44 9.60Q38.47 9.58 38.53 9.58L38.53 9.58L38.11 10.00Q38.00 10.16 37.91 10.22L37.91 10.22L37.24 10.86L37.24 11.03Q37.32 11.06 37.38 11.00L37.38 11.00Q37.46 10.89 37.58 10.81L37.58 10.81L37.27 11.20Q37.18 11.28 37.16 11.34L37.16 11.34Q37.21 11.42 37.24 11.42L37.24 11.42Q37.32 11.45 37.38 11.56L37.38 11.56L37.38 11.62Q37.41 11.79 37.58 11.96L37.58 11.96Q37.66 12.04 37.77 12.21L37.77 12.21Q37.77 12.24 37.86 12.32L37.86 12.32Q37.91 12.38 38.00 12.52L38.00 12.52Q38.11 12.63 38.14 12.71L38.14 12.71Q38.19 12.77 38.33 13.08L38.33 13.08L38.36 13.16Q38.36 13.24 38.33 13.30L38.33 13.30L38.25 13.44L38.33 13.58L38.33 13.66Q38.30 13.72 38.33 13.80L38.33 13.80Q38.33 13.92 38.25 13.92L38.25 13.92L38.11 13.94Q38.08 14.08 37.88 14.22L37.88 14.22L37.69 14.50Q37.63 14.50 37.63 14.53L37.63 14.53Q37.52 14.59 37.46 14.64L37.46 14.64L37.46 14.73L37.18 14.81Q37.07 14.95 36.82 15.06L36.82 15.06Q36.79 15.09 36.79 15.12L36.79 15.12Q36.74 15.18 36.68 15.18L36.68 15.18Q36.57 15.15 36.46 15.18L36.46 15.18L36.34 15.18L36.34 15.26Q36.26 15.29 36.23 15.26L36.23 15.26Q36.06 15.20 35.98 15.20L35.98 15.20Q35.84 15.26 35.70 15.15L35.70 15.15L35.20 14.95Q35.11 14.87 35 14.90L35 14.90L34.94 14.90Q34.44 14.59 34.52 14.70L34.52 14.70L34.44 14.53Q34.38 14.48 34.38 14.42L34.38 14.42Q34.33 14.31 34.33 14.25L34.33 14.25Q34.24 14 34.08 13.83L34.08 13.83L33.52 13.10Q33.21 12.66 32.90 12.07L32.90 12.07Q32.70 11.65 32.56 11.03L32.56 11.03Q32.48 10.70 32.54 10.25L32.54 10.25ZM76.38 12.80L76.33 12.85Q76.33 12.82 76.30 12.82L76.30 12.82Q76.27 12.80 76.24 12.80L76.24 12.80L76.41 12.71Q76.55 12.66 76.66 12.54L76.66 12.54L76.75 12.46Q76.80 12.40 76.94 12.38L76.94 12.38Q77.06 11.82 77.06 11.98L77.06 11.98Q77.03 11.98 76.97 11.93L76.97 11.93Q77 11.84 77 11.68L77 11.68Q77.06 11.54 76.97 11.42L76.97 11.42Q76.97 11.34 76.94 11.31L76.94 11.31L76.92 11.14Q76.92 11.03 76.89 10.98L76.89 10.98Q76.78 10.70 76.55 10.42L76.55 10.42Q76.33 10.19 75.96 10.05L75.96 10.05Q75.91 10.05 75.85 10.00L75.85 10.00Q75.82 9.91 75.71 9.91L75.71 9.91L75.52 9.91L74.98 9.69Q74.90 9.63 74.76 9.69L74.76 9.69L74.56 9.77Q74.48 9.83 74.26 9.77L74.26 9.77Q74.34 9.60 74.31 9.63L74.31 9.63L74.34 9.52Q74.40 9.21 74.20 8.85L74.20 8.85L73.98 8.46Q73.95 8.40 73.92 8.40L73.92 8.40L73.84 8.32L73.78 8.18L73.58 7.90L73.58 7.81Q73.72 7.81 73.81 7.78L73.81 7.78Q74.70 7.73 75.10 7.67L75.10 7.67Q75.21 7.64 75.40 7.64L75.40 7.64L77.90 7.45Q78.15 7.42 78.62 7.42L78.62 7.42Q78.79 7.39 79.07 7.45L79.07 7.45L79.30 7.42Q79.16 7.39 79.69 7.39L79.69 7.39Q79.72 7.39 79.72 7.36L79.72 7.36Q79.91 7.28 79.97 7.17L79.97 7.17Q80.05 7.08 80.16 6.92L80.16 6.92Q80.28 6.75 80.30 6.66L80.30 6.66Q80.36 6.61 80.36 6.55L80.36 6.55Q80.42 6.41 80.50 6.38L80.50 6.38L80.56 6.38Q80.67 6.30 80.64 6.19L80.64 6.19Q80.61 6.13 80.61 6.02L80.61 6.02Q80.67 5.85 80.61 5.68L80.61 5.68Q80.61 5.35 80.42 5.07L80.42 5.07Q80.30 4.90 80.14 4.79L80.14 4.79L79.97 4.62Q79.94 4.54 79.83 4.54L79.83 4.54Q79.69 4.48 79.60 4.37L79.60 4.37Q79.49 4.26 79.44 4.26L79.44 4.26Q79.38 4.23 79.32 4.17L79.32 4.17L79.30 4.09Q79.24 4.03 79.18 4.03L79.18 4.03L78.93 4.00Q78.88 3.98 78.71 4.03L78.71 4.03L78.62 4.06Q78.54 4.06 78.51 4.09L78.51 4.09Q78.40 4.14 78.34 4.14L78.34 4.14L78.26 4.14Q78.18 4.20 77.98 4.20L77.98 4.20L75.15 4.42Q75.10 4.37 75.10 4.31L75.10 4.31Q75.04 4.20 74.98 4.14L74.98 4.14Q74.70 3.86 74.51 3.72L74.51 3.72Q74.40 3.67 74.34 3.67L74.34 3.67Q74.26 3.67 74.20 3.64L74.20 3.64Q74.14 3.58 73.98 3.53L73.98 3.53Q73.64 3.42 73.50 3.39L73.50 3.39Q73.30 3.33 73.11 3.39L73.11 3.39Q72.91 3.44 72.80 3.56L72.80 3.56Q72.60 3.67 72.52 3.86L72.52 3.86Q72.52 3.92 72.49 3.95L72.49 3.95Q72.32 4.23 72.21 4.37L72.21 4.37L72.13 4.45Q72.04 4.54 71.93 4.70L71.93 4.70Q71.90 4.73 71.82 4.73L71.82 4.73L69.72 4.98Q69.64 4.98 69.61 4.96L69.61 4.96Q69.55 5.01 69.41 5.01L69.41 5.01L67.20 5.26Q67.09 5.26 67.03 5.21L67.03 5.21Q66.98 5.15 66.98 5.12L66.98 5.12Q66.81 4.87 66.44 4.68L66.44 4.68L65.83 4.31L65.44 4.14Q65.35 4.09 65.13 4.09L65.13 4.09L64.99 4.14Q64.88 4.14 64.65 4.26L64.65 4.26Q64.74 4.34 64.60 4.40L64.60 4.40L64.46 4.34Q64.43 4.37 64.46 4.40L64.46 4.40L64.46 4.48L64.18 4.65Q64.20 4.68 64.23 4.68L64.23 4.68L64.15 4.79Q64.09 4.84 64.09 4.93L64.09 4.93Q64.06 4.98 64.06 5.04L64.06 5.04Q64.09 5.12 64.01 5.26L64.01 5.26L64.01 5.43Q64.04 5.54 64.01 5.60L64.01 5.60L60.26 6.16L59.75 6.27Q59.33 6.36 58.91 6.52L58.91 6.52Q58.49 6.66 58.60 6.64L58.60 6.64L58.60 6.69Q58.35 6.83 58.27 6.80L58.27 6.80Q58.27 6.75 58.35 6.92L58.35 6.92Q58.24 6.92 58.18 7L58.18 7Q58.13 7.03 58.07 7.14L58.07 7.14L57.99 7.31Q57.90 7.45 57.93 7.56L57.93 7.56L58.04 7.90Q58.10 8.01 58.10 8.06L58.10 8.06Q58.10 8.18 58.21 8.29L58.21 8.29L58.41 8.43L58.66 8.54L58.97 8.85Q59.08 8.90 59.16 8.90L59.16 8.90Q59.19 8.90 59.22 8.93L59.22 8.93L59.50 9.10L60.06 9.35Q60.09 9.38 60.17 9.38L60.17 9.38Q60.54 9.38 60.82 9.21L60.82 9.21Q60.98 9.13 61.12 9.13L61.12 9.13L61.96 9.04Q62.10 9.04 62.38 8.99L62.38 8.99L65.35 8.62Q65.38 8.65 65.41 8.74L65.41 8.74Q65.44 8.79 65.44 8.85L65.44 8.85Q65.41 8.85 65.41 8.88L65.41 8.88Q65.35 8.85 64.99 8.85L64.99 8.85L64.71 8.82Q64.32 8.82 64.15 9.10L64.15 9.10L64.06 9.16Q63.98 9.18 64.04 9.27L64.04 9.27L64.04 9.30L63.92 9.30Q63.84 9.44 63.90 9.44L63.90 9.44L63.87 9.69Q63.81 9.69 63.81 9.74L63.81 9.74L63.73 9.94Q63.70 10.00 63.70 10.14L63.70 10.14Q63.70 10.19 63.76 10.36L63.76 10.36Q63.84 10.56 64.12 10.89L64.12 10.89L64.20 10.98L64.09 11.00Q63.87 11.06 63.48 11.12L63.48 11.12L62.44 11.28Q62.10 11.31 61.71 11.45L61.71 11.45Q61.54 11.48 61.35 11.59L61.35 11.59Q61.38 11.62 61.38 11.65L61.38 11.65L61.29 11.76Q61.26 11.84 61.18 11.84L61.18 11.84Q61.18 11.90 61.15 11.93L61.15 11.93Q61.12 11.98 61.15 12.07L61.15 12.07L61.12 12.26Q61.10 12.35 61.07 12.38L61.07 12.38Q61.04 12.46 61.12 12.74L61.12 12.74Q61.21 12.82 61.21 12.94L61.21 12.94Q61.21 12.99 61.26 13.05L61.26 13.05L61.32 13.10Q61.66 13.36 61.96 13.41L61.96 13.41L62.58 13.80L62.89 13.94Q62.97 13.94 63.03 13.97L63.03 13.97L63.20 14.06Q63.25 14.11 63.31 14.06L63.31 14.06L63.67 13.97L64.48 13.97L64.48 14.17Q64.46 14.20 64.40 14.20L64.40 14.20L63 14.36Q62.86 14.36 62.78 14.39L62.78 14.39Q62.69 14.39 62.47 14.45L62.47 14.45Q61.91 14.59 61.80 14.64L61.80 14.64Q61.57 14.70 61.43 14.84L61.43 14.84Q61.40 14.81 61.29 14.81L61.29 14.81Q61.32 14.87 61.32 14.95L61.32 14.95Q61.18 15.09 61.10 15.15L61.10 15.15L61.12 15.20L61.12 15.65Q61.10 15.74 61.18 15.82L61.18 15.82Q61.18 15.85 61.21 15.88L61.21 15.88L61.18 15.99Q61.18 16.04 61.15 16.10L61.15 16.10Q61.32 16.24 61.60 16.32L61.60 16.32L61.88 16.46Q61.94 16.46 61.94 16.49L61.94 16.49L62.02 16.55Q62.08 16.60 62.08 16.63L62.08 16.63L62.58 16.91Q62.66 17.00 62.78 17.00L62.78 17.00L62.86 17.02Q62.89 17.02 62.92 17.05L62.92 17.05Q63.08 17.11 63.20 17.00L63.20 17.00Q63.34 16.91 63.45 16.94L63.45 16.94L63.76 16.94L63.78 16.91Q64.04 16.91 64.18 16.88L64.18 16.88L64.43 16.86Q64.54 17.02 64.51 17.11L64.51 17.11L61.35 17.36Q61.24 17.36 61.18 17.39L61.18 17.39Q61.10 17.39 60.93 17.44L60.93 17.44Q60.87 17.44 60.70 17.50L60.70 17.50L60.48 17.58Q60.34 17.67 60.31 17.72L60.31 17.72Q60.28 17.72 60.23 17.78L60.23 17.78L60.09 17.86Q60.06 17.89 60.09 17.89L60.09 17.89Q60.12 17.92 60.12 18.06L60.12 18.06Q60.09 18.12 60.09 18.23L60.09 18.23Q60.06 18.40 60.14 18.48L60.14 18.48Q60.20 18.54 60.20 18.62L60.20 18.62Q60.20 18.82 60.17 18.93L60.17 18.93L60.26 19.01Q60.40 19.18 60.65 19.29L60.65 19.29Q60.70 19.29 60.82 19.35L60.82 19.35L61.35 19.63Q61.52 19.68 61.57 19.77L61.57 19.77Q61.66 19.85 61.77 19.85L61.77 19.85L64.54 19.60Q64.54 19.80 64.51 19.91L64.51 19.91L63.92 19.96Q63.70 19.96 63.56 19.99L63.56 19.99L62.19 20.13Q62.02 20.13 61.74 20.19L61.74 20.19L61.38 20.24L60.96 20.38L60.65 20.78L60.59 21.20Q60.59 21.48 60.82 21.70L60.82 21.70Q60.87 21.70 60.87 21.76L60.87 21.76Q60.90 21.76 60.96 21.81L60.96 21.81L61.04 21.87Q61.24 22.01 61.49 22.06L61.49 22.06L61.63 22.15Q61.68 22.23 61.74 22.23L61.74 22.23Q61.77 22.23 61.80 22.26L61.80 22.26Q61.99 22.40 62.02 22.40L62.02 22.40L62.41 22.62Q62.44 22.65 62.55 22.65L62.55 22.65L62.66 22.65Q62.78 22.65 62.83 22.60L62.83 22.60Q62.94 22.48 63.11 22.48L63.11 22.48L63.70 22.48Q63.76 22.48 63.76 22.51L63.76 22.51L63.70 22.65L62.69 23.94Q62.38 24.36 61.74 25.03L61.74 25.03L59.14 27.83Q59.02 28 58.80 28.17L58.80 28.17Q58.66 28.34 58.49 28.48L58.49 28.48Q58.46 28.50 58.46 28.53L58.46 28.53Q58.41 28.59 58.35 28.73L58.35 28.73Q58.30 28.78 58.35 28.87L58.35 28.87L59.00 28.78Q59.28 28.73 59.39 28.73L59.39 28.73Q59.75 28.73 59.92 28.70L59.92 28.70L60.00 28.70Q60.06 28.73 60.03 28.76L60.03 28.76L60.03 28.81L60.54 28.95Q60.93 29.06 61.40 28.92L61.40 28.92Q61.66 28.84 61.94 28.70L61.94 28.70L62.44 28.48Q62.61 28.45 62.69 28.39L62.69 28.39Q63.03 28.22 63.25 28L63.25 28Q63.39 27.86 63.59 27.75L63.59 27.75Q63.62 27.75 63.67 27.69L63.67 27.69Q64.01 27.50 64.23 27.27L64.23 27.27L64.32 27.22Q64.34 27.16 64.37 27.16L64.37 27.16Q64.40 27.16 64.43 27.13L64.43 27.13Q64.43 27.19 64.46 27.22L64.46 27.22L64.43 28.06Q64.43 28.22 64.34 28.31L64.34 28.31L64.26 28.48Q64.34 28.56 64.37 28.62L64.37 28.62L64.51 28.84Q64.57 28.95 64.57 29.01L64.57 29.01L64.74 29.57L64.93 29.76L65.35 29.88L65.41 29.93Q65.63 29.99 65.74 29.93L65.74 29.93L65.88 29.90Q66.14 29.85 66.25 29.76L66.25 29.76Q66.42 29.71 66.47 29.74L66.47 29.74Q66.53 29.74 66.56 29.71L66.56 29.71L66.67 29.65Q66.78 29.57 66.95 29.62L66.95 29.62L67.06 29.68Q67.14 29.60 67.31 29.60L67.31 29.60L67.54 29.60Q67.70 29.54 67.76 29.54L67.76 29.54L67.87 29.51Q67.96 29.26 67.96 29.04L67.96 29.04Q67.98 28.81 67.98 28.42L67.98 28.42Q67.98 28.20 68.10 28.08L68.10 28.08Q68.12 28.03 68.12 27.92L68.12 27.92L68.04 27.66Q67.98 27.61 67.98 27.50L67.98 27.50Q67.96 27.27 67.96 26.77L67.96 26.77L67.98 22.51L67.96 22.18Q67.96 22.06 67.98 22.04L67.98 22.04L68.24 22.01Q68.35 21.98 68.54 21.98L68.54 21.98L68.82 21.95Q68.91 21.95 68.94 21.98L68.94 21.98Q68.94 22.04 68.96 22.06L68.96 22.06L69.08 27.27L69.08 28.73Q69.08 28.76 69.02 28.81L69.02 28.81Q68.99 28.90 68.88 28.90L68.88 28.90L68.82 29.09Q68.82 29.18 68.94 29.23L68.94 29.23Q68.99 29.29 68.99 29.32L68.99 29.32Q69.10 29.40 69.13 29.54L69.13 29.54Q69.16 29.54 69.19 29.60L69.19 29.60Q69.22 29.62 69.22 29.65L69.22 29.65L69.36 30.02Q69.44 30.27 69.41 30.21L69.41 30.21Q69.30 30.16 69.47 30.32L69.47 30.32Q69.64 30.41 69.61 30.38L69.61 30.38Q70 30.58 69.92 30.52L69.92 30.52L70.08 30.55Q70.20 30.55 70.25 30.58L70.25 30.58Q70.31 30.58 70.36 30.55L70.36 30.55Q70.45 30.55 70.50 30.52L70.50 30.52Q70.84 30.35 71.26 30.21L71.26 30.21Q71.37 30.30 71.54 30.24L71.54 30.24Q71.62 30.21 71.76 30.21L71.76 30.21L71.85 30.21L71.96 30.16Q71.96 30.18 71.99 30.18L71.99 30.18Q72.02 30.21 72.02 30.24L72.02 30.24L72.46 30.07Q72.55 30.02 72.55 29.99L72.55 29.99Q72.55 29.96 72.60 29.96L72.60 29.96Q72.69 29.93 72.69 29.79L72.69 29.79L72.69 29.34Q72.69 29.23 72.72 29.18L72.72 29.18Q72.72 29.09 72.74 29.04L72.74 29.04Q72.88 28.90 72.74 28.73L72.74 28.73Q72.69 28.67 72.69 28.59L72.69 28.59L72.66 26.46L72.58 25.48L72.58 24.84Q72.58 24.78 72.60 24.72L72.60 24.72L73.30 25.40Q73.58 25.70 74.00 26.04L74.00 26.04L75.71 27.61Q75.82 27.78 76.02 27.86L76.02 27.86L77.28 28.90Q77.36 28.98 77.50 28.98L77.50 28.98L77.59 29.01Q77.64 29.01 77.67 29.04L77.67 29.04Q77.70 29.06 77.78 29.06L77.78 29.06L78.06 28.98Q78.09 28.95 78.20 28.95L78.20 28.95L78.79 28.92Q78.99 28.92 79.38 28.87L79.38 28.87Q79.46 28.87 79.49 28.84L79.49 28.84L80.33 28.50L81.45 28.25Q81.62 28.20 81.70 28.14L81.70 28.14Q81.70 28.11 81.76 28.11L81.76 28.11L82.15 27.83L82.91 27.41Q83.05 27.36 82.91 27.27L82.91 27.27Q82.80 27.16 82.80 27.05L82.80 27.05L82.80 26.96Q82.71 26.88 82.77 26.77L82.77 26.77L82.88 26.71Q82.94 26.66 82.94 26.57L82.94 26.57L82.91 26.49Q82.94 26.43 82.94 26.12L82.94 26.12L82.94 25.79L82.80 25.51Q82.74 25.40 82.68 25.37L82.68 25.37Q82.40 25.23 82.35 25.23L82.35 25.23L82.32 25.17Q82.29 25.12 82.18 25.12L82.18 25.12Q82.12 25.14 82.04 25.12L82.04 25.12L81.70 25.03L81.34 24.86L80.92 24.84Q80.84 24.84 80.67 24.78L80.67 24.78Q80.42 24.70 80.16 24.70L80.16 24.70L78.60 24.44Q78.60 24.42 78.57 24.39L78.57 24.39L78.54 24.39Q78.20 24.28 78.32 24.33L78.32 24.33L78.12 24.22Q77.90 24.11 77.81 24.02L77.81 24.02L75.57 22.23Q75.12 21.84 74.87 21.59L74.87 21.59L74.84 21.50Q74.90 21.48 74.98 21.48L74.98 21.48L75.91 21.42Q76.10 21.42 76.16 21.25L76.16 21.25L76.16 21.20Q76.22 21.14 76.27 21.11L76.27 21.11Q76.30 21.11 76.30 21.08L76.30 21.08Q76.47 21.06 76.50 20.89L76.50 20.89Q76.61 20.66 76.64 20.55L76.64 20.55Q76.72 20.47 76.69 20.47L76.69 20.47Q76.86 20.27 76.75 20.02L76.75 20.02Q76.72 19.94 76.58 19.71L76.58 19.71L76.58 19.57Q76.47 19.63 76.47 19.49L76.47 19.49Q76.41 19.43 76.47 19.35L76.47 19.35Q76.58 19.07 76.66 18.93L76.66 18.93Q76.72 18.76 76.78 18.68L76.78 18.68Q76.78 18.59 76.86 18.59L76.86 18.59L78.68 18.42Q78.85 18.40 79.13 18.40L79.13 18.40L79.52 18.40Q79.66 18.40 79.74 18.31L79.74 18.31Q79.80 18.23 79.91 18.12L79.91 18.12Q79.97 18.06 79.97 18.03L79.97 18.03L79.97 17.92L80.02 17.86Q80.25 17.70 80.36 17.44L80.36 17.44Q80.47 17.16 80.47 17.02L80.47 17.02Q80.47 16.91 80.44 16.86L80.44 16.86Q80.42 16.83 80.42 16.80L80.42 16.80Q80.42 16.72 80.36 16.60L80.36 16.60Q80.30 16.60 80.22 16.52L80.22 16.52L80.05 16.30Q79.91 16.10 79.83 16.07L79.83 16.07Q79.80 16.04 79.72 16.02L79.72 16.02Q79.66 15.99 79.60 15.99L79.60 15.99Q79.52 15.90 79.41 15.90L79.41 15.90Q78.96 15.85 78.74 15.79L78.74 15.79Q78.60 15.79 78.54 15.74L78.54 15.74Q78.62 15.65 78.74 15.62L78.74 15.62L79.04 15.51Q79.18 15.37 79.18 15.34L79.18 15.34L79.24 14.98L79.18 14.67Q79.18 14.62 79.16 14.59L79.16 14.59Q79.18 14.64 79.10 14.39L79.10 14.39Q79.07 14.25 78.99 14.20L78.99 14.20Q78.74 13.92 78.62 13.69L78.62 13.69Q78.62 13.66 78.60 13.64L78.60 13.64Q78.57 13.58 78.54 13.58L78.54 13.58Q78.37 13.41 78.34 13.30L78.34 13.30Q78.34 13.24 78.23 13.19L78.23 13.19L78.15 13.16Q78.09 13.08 77.92 12.96L77.92 12.96L77.90 12.96Q77.78 12.85 77.73 12.77L77.73 12.77Q77.59 12.63 77.34 12.66L77.34 12.66L77.17 12.66Q76.92 12.60 76.69 12.71L76.69 12.71Q76.64 12.74 76.52 12.74L76.52 12.74Q76.41 12.74 76.38 12.80L76.38 12.80ZM70.22 9.24L70.81 8.93Q70.84 8.90 70.90 8.90L70.90 8.90Q70.87 8.99 70.78 9.02L70.78 9.02L69.55 10.14Q69.44 10.25 69.36 10.25L69.36 10.25L67.65 10.44Q67.51 10.47 67.40 10.33L67.40 10.33Q67.28 10.16 67.20 10.11L67.20 10.11Q67.09 10.05 67.09 9.94L67.09 9.94L67.06 9.88L66.95 9.91L66.58 9.63L66.61 9.60L66.98 9.60L67.26 9.69L67.42 9.60Q67.51 9.52 67.62 9.52L67.62 9.52Q67.68 9.55 67.73 9.49L67.73 9.49L67.84 9.46Q67.87 9.46 67.87 9.44L67.87 9.44L68.07 9.21Q68.10 9.18 68.15 9.18L68.15 9.18Q68.24 9.13 68.24 9.10L68.24 9.10Q68.35 8.88 68.46 8.76L68.46 8.76Q68.49 8.74 68.49 8.68L68.49 8.68L68.46 8.40Q68.46 8.29 68.57 8.29L68.57 8.29L68.99 8.26Q68.99 8.29 68.96 8.32L68.96 8.32L68.52 9.04Q68.40 9.21 68.26 9.30L68.26 9.30Q68.07 9.44 68.04 9.44L68.04 9.44L67.96 9.52L67.87 9.83L67.59 10.11Q67.73 10.16 67.82 10.08L67.82 10.08Q67.90 10.02 68.26 9.91L68.26 9.91Q68.49 9.86 68.63 9.86L68.63 9.86Q68.91 9.83 69.16 9.69L69.16 9.69L70.22 9.24ZM69.38 13.69L67.93 13.86L67.93 13.69Q67.93 13.58 68.04 13.55L68.04 13.55L68.77 13.47Q69.16 13.41 69.33 13.41L69.33 13.41L69.41 13.41L69.38 13.69ZM76.10 12.94L76.19 12.91L76.05 13.05Q76.02 13.08 75.96 13.08L75.96 13.08L72.72 13.36Q72.69 13.27 72.72 13.19L72.72 13.19L74.14 13.08L75.94 13.02Q76.02 13.02 76.10 12.94L76.10 12.94ZM68.60 19.57L68.29 19.60Q68.07 19.60 67.96 19.63L67.96 19.63L67.96 19.32Q68.24 19.26 68.38 19.26L68.38 19.26Q68.52 19.24 68.80 19.24L68.80 19.24Q69.08 19.18 69.22 19.21L69.22 19.21L69.22 19.52L68.91 19.54Q68.71 19.54 68.60 19.57L68.60 19.57ZM72.72 19.24L72.72 18.82Q73.39 18.76 73.72 18.79L73.72 18.79Q73.72 18.87 73.67 19.15L73.67 19.15L72.97 19.21Q72.80 19.21 72.72 19.24L72.72 19.24ZM74.45 16.21L73.14 16.32Q72.86 16.38 72.72 16.35L72.72 16.35L72.72 16.16L74.51 16.02Q74.51 16.07 74.48 16.13L74.48 16.13L74.45 16.21ZM67.98 16.80Q67.96 16.80 67.96 16.77L67.96 16.77L67.96 16.55Q68.04 16.52 68.24 16.52L68.24 16.52Q68.35 16.49 68.60 16.49L68.60 16.49L68.94 16.46Q69.10 16.41 69.22 16.49L69.22 16.49L69.22 16.66Q69.19 16.69 69.10 16.69L69.10 16.69Q68.38 16.74 67.98 16.80L67.98 16.80ZM93.52 29.74L93.52 29.79Q93.55 29.76 93.58 29.76L93.58 29.76L93.94 29.68L93.74 29.82Q93.86 29.82 93.91 29.76L93.91 29.76L94.36 29.48L94.56 29.40L94.78 29.37Q94.92 29.40 94.98 29.34L94.98 29.34L95.09 29.34Q95.12 29.34 95.12 29.37L95.12 29.37Q95.09 29.40 95.06 29.40L95.06 29.40L95.28 29.40Q95.34 29.37 95.48 29.34L95.48 29.34L96.66 29.15Q96.60 29.15 97.13 28.98L97.13 28.98L97.36 28.90Q97.44 28.81 97.55 28.81L97.55 28.81Q97.55 28.76 97.61 28.76L97.61 28.76L97.89 28.62Q97.92 28.62 97.94 28.59L97.94 28.59Q97.86 28.62 98.20 28.45L98.20 28.45Q98.42 28.36 98.64 28.22L98.64 28.22Q98.81 28.14 98.92 28L98.92 28L98.95 27.97Q99.12 27.86 99.18 27.78L99.18 27.78Q99.23 27.72 99.26 27.72L99.26 27.72Q99.29 27.69 99.32 27.69L99.32 27.69L99.37 27.66L99.43 27.55Q99.54 27.55 99.54 27.52L99.54 27.52L99.54 27.47Q99.68 27.44 99.82 27.30L99.82 27.30L99.93 27.19Q99.93 27.16 99.99 27.13L99.99 27.13Q100.04 27.13 100.04 27.10L100.04 27.10L100.30 26.85Q100.41 26.77 100.52 26.74L100.52 26.74L100.52 26.71Q100.58 26.63 100.69 26.63L100.69 26.63Q100.72 26.52 100.88 26.40L100.88 26.40Q101.02 26.46 101.05 26.52L101.05 26.52Q101.72 27.08 102.09 27.33L102.09 27.33Q102.54 27.72 102.79 27.89L102.79 27.89L103.18 28.28Q103.29 28.34 103.32 28.39L103.32 28.39L103.43 28.50Q103.49 28.50 103.49 28.53L103.49 28.53Q103.54 28.59 103.54 28.62L103.54 28.62Q103.71 28.81 103.94 28.95L103.94 28.95L104.55 29.32Q104.55 29.37 104.58 29.40L104.58 29.40Q104.61 29.43 104.64 29.43L104.64 29.43L104.66 29.43Q104.75 29.46 104.75 29.51L104.75 29.51Q104.97 29.51 105.20 29.65L105.20 29.65Q105.36 29.74 105.45 29.74L105.45 29.74L105.59 29.76Q105.70 29.79 105.73 29.82L105.73 29.82Q105.90 29.90 106.12 29.90L106.12 29.90L106.79 29.90Q106.71 29.93 107.35 29.82L107.35 29.82L107.63 29.79Q107.74 29.79 107.83 29.71L107.83 29.71L108.00 29.62Q108.02 29.60 108.08 29.60L108.08 29.60L109.26 29.23L109.87 28.78Q109.90 28.76 109.96 28.76L109.96 28.76Q110.01 28.70 109.98 28.70L109.98 28.70Q110.04 28.70 110.04 28.64L110.04 28.64L110.01 28.56Q110.04 28.53 110.04 28.48L110.04 28.48L110.07 28.39Q110.10 28.39 110.15 28.45L110.15 28.45Q110.15 28.36 110.18 28.36L110.18 28.36L110.43 28.03Q110.46 28 110.46 27.92L110.46 27.92Q110.40 27.78 110.57 27.72L110.57 27.72L110.57 27.64Q110.63 27.58 110.57 27.52L110.57 27.52L110.57 27.44Q110.66 27.44 110.66 27.41L110.66 27.41L110.57 27.41Q110.52 27.38 110.54 27.30L110.54 27.30Q110.57 27.30 110.57 27.27L110.57 27.27L110.54 27.22L110.60 27.16Q110.54 27.10 110.54 27.08L110.54 27.08Q110.54 27.05 110.52 27.05L110.52 27.05Q110.35 26.88 110.21 26.85L110.21 26.85Q110.29 26.88 110.01 26.74L110.01 26.74L109.40 26.60Q109.34 26.66 109.31 26.63L109.31 26.63L108.64 26.52Q108.50 26.49 108.02 26.32L108.02 26.32L107.16 25.82Q106.90 25.68 106.60 25.45L106.60 25.45L104.33 23.88Q104.24 23.80 104.05 23.66L104.05 23.66L103.57 23.30Q103.77 23.16 103.80 23.16L103.80 23.16L103.99 22.96Q104.08 22.88 104.10 22.79L104.10 22.79L104.38 22.51Q104.44 22.46 104.44 22.43L104.44 22.43L104.58 22.20L104.55 22.18Q104.61 22.09 104.64 22.09L104.64 22.09L104.94 21.76L104.97 21.64L105.22 21.36Q105.28 21.31 105.25 21.28L105.25 21.28Q105.31 21.20 105.45 21.06L105.45 21.06L105.39 21Q105.50 20.89 105.53 20.83L105.53 20.83Q105.56 20.75 105.64 20.72L105.64 20.72Q105.64 20.61 105.67 20.58L105.67 20.58Q105.92 20.33 105.84 20.38L105.84 20.38L106.12 19.99Q106.18 19.94 106.18 19.91L106.18 19.91Q106.26 19.74 106.40 19.60L106.40 19.60Q106.48 19.40 106.62 19.35L106.62 19.35Q106.68 19.29 106.76 19.29L106.76 19.29L106.90 19.32Q106.99 19.32 107.02 19.35L107.02 19.35Q107.10 19.35 107.13 19.32L107.13 19.32Q107.16 19.29 107.18 19.29L107.18 19.29Q107.35 19.24 107.44 19.26L107.44 19.26Q107.46 19.29 107.49 19.29L107.49 19.29Q107.55 19.29 107.60 19.24L107.60 19.24L107.86 19.04Q107.86 18.96 107.91 18.79L107.91 18.79Q107.91 18.76 107.88 18.73L107.88 18.73Q107.86 18.68 107.91 18.56L107.91 18.56Q107.94 18.45 107.91 18.34L107.91 18.34L107.91 18.12Q107.91 17.98 107.86 17.75L107.86 17.75Q107.80 17.39 107.63 17.19L107.63 17.19L107.60 17.14Q107.55 17.00 107.32 16.72L107.32 16.72L107.13 16.35Q107.04 16.21 106.99 16.18L106.99 16.18Q106.99 16.16 106.93 16.10L106.93 16.10Q106.90 16.02 106.76 15.96L106.76 15.96Q106.48 15.90 106.37 15.90L106.37 15.90Q106.18 15.90 106.06 15.93L106.06 15.93Q106.23 15.88 105.78 15.99L105.78 15.99Q105.76 16.04 105.53 16.13L105.53 16.13L105.45 16.04Q105.39 16.10 105.34 16.10L105.34 16.10Q105.25 16.10 105.20 16.07L105.20 16.07L105.11 16.18Q104.97 16.27 104.92 16.24L104.92 16.24Q104.83 16.24 104.80 16.27L104.80 16.27Q104.55 16.35 104.61 16.32L104.61 16.32L102.87 16.55Q102.70 16.55 102.62 16.58L102.62 16.58L98.70 17.16L97.69 17.39L97.52 17.47Q97.47 17.53 97.36 17.53L97.36 17.53Q97.16 17.61 97.10 17.67L97.10 17.67Q97.10 17.70 97.08 17.72L97.08 17.72Q96.94 17.86 96.94 18.00L96.94 18.00Q96.88 18.20 96.91 18.31L96.91 18.31L96.80 18.65Q96.71 18.65 96.71 18.59L96.71 18.59L96.71 18.56Q96.80 18.48 96.80 18.54L96.80 18.54Q96.80 18.48 96.77 18.45L96.77 18.45Q96.71 18.42 96.66 18.31L96.66 18.31L96.60 18.17L96.52 18.09Q96.40 17.86 96.40 17.92L96.40 17.92L96.24 17.75Q96.21 17.72 96.15 17.72L96.15 17.72L95.73 17.61Q95.68 17.61 95.26 17.47L95.26 17.47L95.12 17.42Q95.03 17.36 94.89 17.42L94.89 17.42Q94.84 17.42 94.81 17.44L94.81 17.44Q94.72 17.47 94.58 17.47L94.58 17.47L92.88 17.72Q92.60 17.78 92.43 17.78L92.43 17.78L92.29 17.81Q92.20 17.81 92.15 17.84L92.15 17.84L92.06 17.81L92.09 17.72Q92.09 17.64 92.18 17.64L92.18 17.64Q92.23 17.64 92.26 17.58L92.26 17.58Q92.37 17.53 92.46 17.53L92.46 17.53Q92.51 17.50 92.65 17.50L92.65 17.50Q92.74 17.50 92.79 17.47L92.79 17.47Q92.90 17.44 93.13 17.44L93.13 17.44Q93.27 17.44 93.32 17.42L93.32 17.42L94.11 17.28Q94.28 17.30 94.47 17.22L94.47 17.22L95.76 17.02L96.01 17.02Q96.12 16.91 96.10 16.97L96.10 16.97Q96.10 16.94 96.12 16.94L96.12 16.94L96.43 16.80Q96.63 16.66 96.66 16.52L96.66 16.52Q96.68 16.41 96.68 16.21L96.68 16.21Q96.68 16.13 96.80 15.96L96.80 15.96Q96.82 15.96 96.82 15.93L96.82 15.93Q96.99 15.82 97.05 15.76L97.05 15.76L97.19 15.29L97.19 15.15L97.30 15.04L97.36 15.12Q97.41 15.18 97.41 15.20L97.41 15.20L97.38 15.29Q97.33 15.29 97.30 15.32L97.30 15.32Q97.36 15.43 97.36 15.54L97.36 15.54L97.55 15.82L98.48 16.46L98.56 16.46Q98.64 16.55 98.67 16.55L98.67 16.55Q98.73 16.58 98.81 16.66L98.81 16.66L98.98 16.72Q99.06 16.77 99.20 16.72L99.20 16.72L99.23 16.72Q99.29 16.74 99.40 16.69L99.40 16.69Q99.51 16.63 99.57 16.66L99.57 16.66L99.88 16.60Q100.02 16.58 100.24 16.58L100.24 16.58Q100.30 16.58 100.41 16.52L100.41 16.52Q100.58 16.46 100.69 16.46L100.69 16.46L101.58 16.38Q101.64 16.38 101.72 16.44L101.72 16.44L101.86 16.35L102.20 16.35Q102.31 16.30 102.51 16.30L102.51 16.30L103.35 16.24Q103.49 16.30 103.63 16.24L103.63 16.24Q103.68 16.21 103.80 16.21L103.80 16.21L104.38 16.18Q104.41 16.18 104.41 16.13L104.41 16.13L104.41 16.10Q104.50 16.07 104.69 16.07L104.69 16.07L104.72 15.99L104.89 15.96L105.20 15.74Q105.34 15.68 105.45 15.48L105.45 15.48L105.50 15.34L105.50 15.18Q105.50 15.12 105.53 15.09L105.53 15.09Q105.59 14.98 105.50 14.90L105.50 14.90L105.53 14.73Q105.53 14.70 105.56 14.67L105.56 14.67Q105.59 14.67 105.59 14.64L105.59 14.64Q105.59 14.59 105.64 14.56L105.64 14.56L105.84 13.86L106.04 13.38Q106.15 13.22 106.18 13.05L106.18 13.05Q106.12 13.13 106.32 12.74L106.32 12.74L106.40 12.66Q106.48 12.66 106.51 12.57L106.51 12.57L106.65 12.46L106.90 12.46Q106.96 12.35 107.13 12.32L107.13 12.32L107.27 12.26L107.35 12.15Q107.41 12.12 107.46 11.96L107.46 11.96L107.35 11.03L107.24 10.70Q107.16 10.50 106.96 10.25L106.96 10.25Q106.57 9.72 106.68 9.91L106.68 9.91L106.40 9.55Q106.23 9.27 106.18 9.13L106.18 9.13Q106.06 9.02 106.01 8.99L106.01 8.99Q105.84 8.90 105.87 8.93L105.87 8.93Q105.78 8.88 105.62 8.88L105.62 8.88L104.80 9.10L104.69 9.21Q104.55 9.27 104.47 9.24L104.47 9.24L104.41 9.24Q104.38 9.30 104.30 9.30L104.30 9.30Q104.24 9.27 104.19 9.32L104.19 9.32L104.10 9.41Q104.08 9.44 103.96 9.44L103.96 9.44Q103.94 9.41 103.82 9.46L103.82 9.46L101.25 9.80L100.60 9.94Q100.41 10.02 100.13 10.02L100.13 10.02Q100.10 10.02 100.07 10.00L100.07 10.00Q100.21 9.86 100.18 9.91L100.18 9.91Q100.24 9.86 100.30 9.83L100.30 9.83Q100.52 9.77 100.60 9.69L100.60 9.69Q100.66 9.63 100.74 9.63L100.74 9.63L101.08 9.41L101.22 9.41L101.25 9.44L101.28 9.41Q101.42 9.32 101.50 9.32L101.50 9.32Q101.58 9.32 101.70 9.27L101.70 9.27Q101.72 9.18 101.86 9.18L101.86 9.18Q101.89 9.16 101.98 9.16L101.98 9.16Q102.17 9.10 102.20 9.07L102.20 9.07Q102.34 8.99 102.40 9.02L102.40 9.02L102.96 8.79L104.05 8.71L105.42 8.68L106.26 8.71Q106.43 8.71 106.48 8.68L106.48 8.68Q106.62 8.68 106.85 8.62L106.85 8.62Q106.99 8.62 107.07 8.68L107.07 8.68L107.46 8.74Q107.58 8.68 107.69 8.68L107.69 8.68Q107.72 8.65 107.77 8.65L107.77 8.65L107.94 8.65Q108.08 8.65 108.14 8.60L108.14 8.60Q108.19 8.54 108.22 8.54L108.22 8.54Q108.28 8.51 108.36 8.51L108.36 8.51L108.47 8.48Q108.64 8.48 108.72 8.34L108.72 8.34L108.84 8.23Q108.92 8.18 109.00 8.06L109.00 8.06Q109.06 7.92 109.17 7.90L109.17 7.90Q109.28 7.84 109.28 7.73L109.28 7.73L109.28 7.62Q109.34 7.39 109.31 7.28L109.31 7.28L109.31 7L109.20 6.55Q109.09 6.33 108.98 6.27L108.98 6.27Q108.98 6.24 108.95 6.22L108.95 6.22Q108.86 6.08 108.72 5.99L108.72 5.99L108.05 5.49L107.94 5.35Q107.91 5.38 107.83 5.35L107.83 5.35L107.80 5.32L106.88 5.32Q106.74 5.32 106.71 5.35L106.71 5.35Q106.68 5.38 106.60 5.40L106.60 5.40L106.34 5.52Q106.18 5.54 106.15 5.40L106.15 5.40L106.06 5.10Q105.95 4.87 105.87 4.76L105.87 4.76Q105.78 4.68 105.73 4.51L105.73 4.51Q105.67 4.45 105.62 4.28L105.62 4.28Q105.62 4.23 105.45 4.09L105.45 4.09Q105.36 3.95 105.22 3.89L105.22 3.89Q105 3.78 104.94 3.64L104.94 3.64Q104.94 3.61 104.89 3.58L104.89 3.58Q104.86 3.56 104.83 3.56L104.83 3.56Q104.72 3.56 104.66 3.53L104.66 3.53Q104.50 3.47 104.44 3.47L104.44 3.47Q104.24 3.50 104.02 3.47L104.02 3.47Q103.85 3.47 103.57 3.58L103.57 3.58Q103.52 3.61 103.43 3.70L103.43 3.70L102.90 4.37Q102.84 4.54 102.76 4.59L102.76 4.59Q102.79 4.54 102.48 4.96L102.48 4.96L101.72 5.74Q101.61 5.85 101.47 5.85L101.47 5.85L97.66 6.16L95.34 6.30Q95.06 6.30 94.92 6.33L94.92 6.33Q94.78 6.33 94.70 6.36L94.70 6.36L94.39 5.82Q94.25 5.60 94.08 5.49L94.08 5.49Q93.97 5.40 93.80 5.18L93.80 5.18L93.66 4.98Q93.66 4.96 93.60 4.96L93.60 4.96Q93.58 4.93 93.55 4.93L93.55 4.93L93.41 4.87Q93.30 4.90 93.16 4.87L93.16 4.87L92.74 4.84L92.46 4.76Q92.29 4.84 92.32 4.84L92.32 4.84Q92.20 4.90 92.06 5.04L92.06 5.04Q91.92 5.12 91.92 5.10L91.92 5.10Q91.92 5.12 91.84 5.12L91.84 5.12L91.76 5.10L91.62 5.21L91.36 5.63Q91.36 5.71 91.31 5.71L91.31 5.71Q91.20 5.80 91.17 5.88L91.17 5.88Q91.14 5.99 91 6.13L91 6.13Q90.97 6.16 90.97 6.19L90.97 6.19Q90.92 6.47 90.72 6.61L90.72 6.61Q90.72 6.64 90.69 6.64L90.69 6.64Q90.64 6.69 90.58 6.69L90.58 6.69Q90.38 6.69 90.30 6.72L90.30 6.72L88.98 6.89Q88.84 6.92 88.54 6.92L88.54 6.92Q88.40 6.97 88.28 6.89L88.28 6.89L88.23 6.89Q88.12 7 87.92 7L87.92 7Q87.70 7.06 87.58 7.06L87.58 7.06L87.53 7.06Q87.47 7.06 87.30 7.11L87.30 7.11L87.16 7.17Q87.05 7.22 86.97 7.20L86.97 7.20Q86.80 7.20 86.72 7.31L86.72 7.31L86.69 7.39Q86.72 7.45 86.66 7.50L86.66 7.50Q86.60 7.56 86.60 7.59L86.60 7.59L86.52 7.76L86.52 7.90Q86.52 8.04 86.55 8.06L86.55 8.06L86.55 8.09Q86.58 8.04 86.58 8.26L86.58 8.26Q86.63 8.43 86.60 8.51L86.60 8.51L86.60 8.76L86.63 8.76Q86.72 8.85 86.72 8.93L86.72 8.93Q86.66 9.10 86.83 9.18L86.83 9.18L87.02 9.41Q87.22 9.58 87.50 9.66L87.50 9.66L88.59 10.00Q88.82 10.05 88.93 10.02L88.93 10.02L89.07 10.05Q89.15 10.08 89.24 10.05L89.24 10.05Q89.29 10.05 89.32 10.02L89.32 10.02Q89.49 10.02 89.66 9.94L89.66 9.94Q89.71 9.88 89.85 9.88L89.85 9.88L90.19 9.86Q90.97 9.74 90.83 9.80L90.83 9.80Q90.66 9.77 91.34 9.77L91.34 9.77L92.18 9.69Q92.23 9.66 92.40 9.66L92.40 9.66Q92.46 9.63 92.60 9.63L92.60 9.63Q92.62 9.63 92.62 9.66L92.62 9.66Q92.54 9.66 92.51 9.69L92.51 9.69Q92.54 9.69 92.54 9.72L92.54 9.72Q92.57 9.74 92.57 9.77L92.57 9.77Q92.71 9.91 92.79 10.11L92.79 10.11Q92.85 10.22 92.93 10.33L92.93 10.33Q92.99 10.39 93.04 10.39L93.04 10.39Q93.07 10.39 93.10 10.42L93.10 10.42Q93.13 10.42 93.13 10.44L93.13 10.44Q93.10 10.47 93.04 10.47L93.04 10.47Q92.99 10.50 92.85 10.50L92.85 10.50L90.83 10.78L90.08 10.92Q89.74 10.98 89.57 11.03L89.57 11.03Q89.35 11.09 89.24 11.14L89.24 11.14L89.15 11.17Q89.10 11.17 89.07 11.20L89.07 11.20Q88.90 11.37 88.90 11.34L88.90 11.34L88.76 11.37L88.68 11.62Q88.65 11.65 88.65 11.70L88.65 11.70Q88.56 12.04 88.56 12.10L88.56 12.10Q88.51 12.32 88.51 12.43L88.51 12.43Q88.51 12.52 88.59 12.54L88.59 12.54Q88.59 12.57 88.65 12.57L88.65 12.57Q88.62 12.71 88.79 12.88L88.79 12.88Q88.82 12.88 88.84 12.94L88.84 12.94Q88.87 12.96 88.87 12.99L88.87 12.99Q89.07 13.19 89.18 13.24L89.18 13.24Q89.40 13.30 89.52 13.38L89.52 13.38L89.99 13.58Q90.02 13.58 90.02 13.64L90.02 13.64Q89.91 13.61 89.82 13.64L89.82 13.64L89.57 13.64L89.46 13.75L89.38 13.78Q89.32 13.78 89.29 13.80L89.29 13.80Q89.29 13.89 89.18 13.86L89.18 13.86Q89.15 13.86 89.10 13.92L89.10 13.92Q89.04 14.03 88.98 14.06L88.98 14.06Q88.96 14.06 88.93 14.08L88.93 14.08Q88.93 14.20 88.82 14.25L88.82 14.25Q88.82 14.28 88.76 14.34L88.76 14.34Q88.68 14.39 88.62 14.50L88.62 14.50Q88.56 14.56 88.51 14.56L88.51 14.56Q88.48 14.56 88.45 14.59L88.45 14.59Q88.48 14.59 88.48 14.62L88.48 14.62Q88.48 14.76 88.37 14.76L88.37 14.76Q88.28 14.78 88.28 14.84L88.28 14.84L88.23 14.98Q88.14 14.98 88.14 15.09L88.14 15.09Q88.06 15.12 87.98 15.09L87.98 15.09L87.98 15.18Q87.95 15.09 88.06 15.90L88.06 15.90L88.09 16.35Q88.09 16.63 88.12 16.77L88.12 16.77Q88.14 17.05 88.14 17.61L88.14 17.61Q88.14 17.70 88.17 17.75L88.17 17.75Q88.20 17.84 88.20 18.00L88.20 18.00L88.26 19.26Q88.28 19.40 88.28 19.71L88.28 19.71L88.31 20.47Q88.28 20.50 88.31 20.55L88.31 20.55L88.31 20.64Q88.34 20.94 88.31 21.28L88.31 21.28L88.34 24.50L88.31 25.00L88.31 28.28Q88.37 28.45 88.31 28.62L88.31 28.62L88.31 28.67Q88.34 28.73 88.34 28.87L88.34 28.87Q88.34 29.01 88.40 29.06L88.40 29.06L88.40 29.23Q88.42 29.32 88.37 29.51L88.37 29.51Q88.37 29.65 88.40 29.74L88.40 29.74L88.31 29.85Q88.48 29.93 88.48 30.16L88.48 30.16Q88.54 30.16 88.59 30.21L88.59 30.21Q88.62 30.21 88.62 30.24L88.62 30.24Q88.65 30.27 88.65 30.30L88.65 30.30Q88.87 30.41 88.82 30.35L88.82 30.35L88.98 30.35L89.24 30.60Q89.40 30.72 89.54 30.69L89.54 30.69L89.68 30.69L90.38 30.55Q90.58 30.49 90.66 30.49L90.66 30.49L90.80 30.46Q91.36 30.35 91.25 30.35L91.25 30.35L91.62 30.27Q91.73 30.16 91.76 30.04L91.76 30.04Q91.81 29.99 91.84 29.99L91.84 29.99Q91.87 29.96 91.95 29.93L91.95 29.93L92.04 29.90Q92.15 29.88 92.15 29.79L92.15 29.79Q92.18 29.76 92.18 29.71L92.18 29.71Q92.18 29.60 92.20 29.54L92.20 29.54Q92.46 29.54 92.60 29.51L92.60 29.51L92.65 29.57Q92.60 29.57 92.60 29.62L92.60 29.62L92.99 29.62Q92.93 29.65 92.85 29.74L92.85 29.74Q92.93 29.71 93.02 29.71L93.02 29.71L93.04 29.76L92.79 29.85L92.54 29.99Q92.60 29.96 92.71 29.96L92.71 29.96Q92.76 29.96 92.93 29.90L92.93 29.90Q93.07 29.85 93.13 29.88L93.13 29.88Q93.18 29.88 93.21 29.85L93.21 29.85L93.38 29.76Q93.49 29.71 93.52 29.74L93.52 29.74ZM93.16 29.62L93.04 29.68Q93.07 29.62 93.16 29.62L93.16 29.62ZM95.14 27.75L93.44 29.26Q93.44 29.23 93.41 29.23L93.41 29.23L93.18 29.34L92.79 29.43Q92.46 29.46 92.12 29.43L92.12 29.43Q92.12 29.40 92.09 29.37L92.09 29.37Q92.06 29.32 92.04 29.32L92.04 29.32Q91.98 29.15 91.98 29.09L91.98 29.09Q92.01 29.04 92.01 28.95L92.01 28.95L92.04 28.81Q92.04 28.76 92.06 28.73L92.06 28.73Q92.09 28.64 92.06 28.53L92.06 28.53Q92.01 28.42 92.01 28.36L92.01 28.36L92.12 25.14Q92.09 25.14 92.09 25.12L92.09 25.12Q92.15 24.86 92.09 24.61L92.09 24.61Q92.09 24.53 92.15 24.50L92.15 24.50Q92.15 24.42 92.26 24.42L92.26 24.42Q92.34 24.39 92.51 24.39L92.51 24.39L93.69 24.22Q93.80 24.19 93.97 24.19L93.97 24.19L94.39 24.14L94.75 24.14L95.82 23.97L96.32 23.97Q96.38 23.97 96.40 23.94L96.40 23.94L96.68 23.86Q96.71 23.83 96.68 23.80L96.68 23.80L96.68 23.74L96.77 23.63Q96.77 23.58 96.82 23.58L96.82 23.58Q96.85 23.55 96.82 23.49L96.82 23.49Q96.96 23.49 97.02 23.41L97.02 23.41L97.02 23.35L97.10 23.27Q97.16 23.21 97.19 23.16L97.19 23.16Q97.16 23.07 97.10 23.02L97.10 23.02L97.19 22.96Q97.22 22.90 97.24 22.90L97.24 22.90Q97.02 22.79 97.08 22.85L97.08 22.85L97.22 22.79L98.17 23.80Q98.50 24.14 98.56 24.22L98.56 24.22Q98.62 24.11 98.28 24.56L98.28 24.56Q98.25 24.61 98.14 24.70L98.14 24.70L98 24.86Q97.86 24.86 97.80 24.92L97.80 24.92L97.86 24.92Q97.89 24.92 97.89 24.95L97.89 24.95Q97.83 25.03 97.72 25.14L97.72 25.14Q97.50 25.31 97.38 25.51L97.38 25.51L96.99 25.93Q96.74 26.18 96.63 26.32L96.63 26.32Q96.46 26.57 96.32 26.66L96.32 26.66L96.26 26.63L96.12 26.85Q96.12 26.88 96.04 26.88L96.04 26.88Q95.98 26.88 95.87 26.99L95.87 26.99L95.59 27.27Q95.37 27.44 95.28 27.55L95.28 27.55Q95.20 27.58 95.20 27.66L95.20 27.66Q95.20 27.69 95.14 27.75L95.14 27.75ZM98.98 12.49Q98.98 12.46 98.95 12.43L98.95 12.43L99.48 12.54Q99.57 12.63 99.65 12.63L99.65 12.63L99.79 12.71Q99.90 12.74 99.93 12.80L99.93 12.80Q99.96 12.82 99.99 12.82L99.99 12.82L100.18 12.91Q100.24 12.96 100.30 12.96L100.30 12.96L100.35 12.96Q100.41 13.02 100.58 13.02L100.58 13.02Q100.72 13.02 100.77 13.08L100.77 13.08Q101.02 12.94 101.11 12.96L101.11 12.96Q101.14 12.94 101.14 12.88L101.14 12.88L101.22 12.80L102.17 12.68Q102.20 12.71 102.20 12.80L102.20 12.80Q102.17 12.82 102.17 12.91L102.17 12.91Q102.12 13.08 102.12 13.19L102.12 13.19Q102.14 13.24 102.09 13.38L102.09 13.38Q102.06 13.41 101.64 13.47L101.64 13.47L100.32 13.61Q100.13 13.61 99.74 13.66L99.74 13.66L99.48 13.69Q99.32 13.69 99.23 13.72L99.23 13.72L98.78 13.80L98.08 14Q98 14 97.97 14.03L97.97 14.03Q97.92 14.03 97.80 14.08L97.80 14.08L97.61 14.17Q97.61 14.11 97.64 14.08L97.64 14.08Q97.69 14 97.75 13.80L97.75 13.80L97.86 13.55Q97.86 13.50 97.92 13.44L97.92 13.44Q97.97 13.38 98.03 13.27L98.03 13.27Q98.06 13.22 98.20 13.16L98.20 13.16L98.25 13.16Q98.45 13.16 98.56 13.05L98.56 13.05Q98.62 13.02 98.81 12.82L98.81 12.82L98.87 12.74Q98.92 12.68 98.92 12.66L98.92 12.66Q99.01 12.57 98.98 12.49L98.98 12.49ZM96.57 19.96L96.57 19.88Q96.60 19.88 96.63 19.85L96.63 19.85Q96.68 19.77 96.77 19.77L96.77 19.77L96.82 19.71Q96.85 19.74 96.91 19.54L96.91 19.54Q97.10 19.68 97.36 19.82L97.36 19.82L97.83 19.99Q97.80 20.02 97.78 20.02L97.78 20.02Q97.61 20.08 97.52 20.13L97.52 20.13L97.38 20.19L97.05 20.41Q97.02 20.41 96.96 20.52L96.96 20.52L96.96 20.58Q96.91 20.64 96.85 20.64L96.85 20.64Q96.85 20.78 96.80 20.83L96.80 20.83L96.80 20.92Q96.82 20.97 96.77 21.03L96.77 21.03Q96.66 21.14 96.66 21.22L96.66 21.22L96.57 21.34Q96.40 21.31 96.26 21.20L96.26 21.20L95.48 20.94Q95.37 20.89 95.28 20.92L95.28 20.92Q95.42 20.92 94.86 21.03L94.86 21.03Q94.72 21.03 94.67 21.11L94.67 21.11Q94.53 21.11 94.47 21.14L94.47 21.14Q93.97 21.20 93.72 21.20L93.72 21.20Q93.32 21.25 93.10 21.25L93.10 21.25Q92.96 21.28 92.65 21.28L92.65 21.28Q92.51 21.28 92.23 21.34L92.23 21.34L92.18 21.34Q92.12 21.14 92.18 20.92L92.18 20.92Q92.23 20.86 92.26 20.86L92.26 20.86Q92.32 20.89 92.43 20.83L92.43 20.83L93.55 20.69Q93.66 20.69 93.72 20.66L93.72 20.66L95.90 20.36Q95.96 20.36 96.07 20.30L96.07 20.30Q96.10 20.27 96.18 20.27L96.18 20.27Q96.21 20.24 96.29 20.24L96.29 20.24Q96.40 20.24 96.46 20.10L96.46 20.10Q96.52 19.99 96.57 19.96L96.57 19.96ZM92.93 13.44L94.14 13.27L94.14 13.38Q94.22 13.44 94.16 13.55L94.16 13.55L94.08 13.86Q94.08 13.89 94.05 13.89L94.05 13.89Q94.02 13.89 93.97 14.03L93.97 14.03L93.88 14.28L91.95 14.56Q91.81 14.56 91.73 14.59L91.73 14.59Q91.59 14.62 91.50 14.53L91.50 14.53Q91.22 14.20 91 13.86L91 13.86Q91 13.80 91.08 13.80L91.08 13.80L92.93 13.44ZM101.02 21.11L100.94 21.20Q100.91 21.22 100.91 21.31L100.91 21.31Q100.80 21.31 100.69 21.25L100.69 21.25L100.02 20.75Q99.57 20.47 99.32 20.36L99.32 20.36L99.20 20.24Q99.20 20.16 99.26 20.22L99.26 20.22Q99.37 20.22 99.43 20.19L99.43 20.19L99.99 20.02L100.41 19.96Q100.52 19.96 100.60 19.94L100.60 19.94Q100.69 19.91 100.83 19.91L100.83 19.91L101.70 19.82L101.78 19.85L101.53 20.30Q101.50 20.38 101.39 20.52L101.39 20.52L101.25 20.78Q101.19 20.89 101.02 21.11L101.02 21.11ZM96.01 10.02Q95.98 10.00 95.93 10.00L95.93 10.00L95.98 9.91Q96.01 9.86 96.12 9.74L96.12 9.74Q96.21 9.72 96.24 9.63L96.24 9.63Q96.32 9.55 96.26 9.44L96.26 9.44L96.26 9.38Q96.32 9.32 96.46 9.32L96.46 9.32Q96.60 9.32 96.88 9.27L96.88 9.27Q97.75 9.27 97.52 9.24L97.52 9.24Q97.66 9.24 97.75 9.21L97.75 9.21Q97.78 9.18 97.86 9.18L97.86 9.18L97.94 9.18Q98.08 9.16 98.39 9.16L98.39 9.16Q98.42 9.18 98.36 9.24L98.36 9.24L97.83 9.97Q97.80 10.02 97.75 10.08L97.75 10.08L97.52 10.25Q97.44 10.19 97.38 10.11L97.38 10.11Q97.24 9.97 97.05 9.88L97.05 9.88Q96.94 9.83 96.85 9.86L96.85 9.86Q96.82 9.88 96.77 9.88L96.77 9.88Q96.49 9.94 96.38 10.02L96.38 10.02Q96.35 10.02 96.32 10.05L96.32 10.05Q96.10 10.05 96.01 10.02L96.01 10.02ZM98.64 11.14L98.62 11.31Q98.36 10.98 98 10.67L98 10.67L99.23 10.28Q99.23 10.30 99.18 10.36L99.18 10.36Q99.15 10.39 99.09 10.39L99.09 10.39L99.06 10.44Q99.04 10.53 98.92 10.53L98.92 10.53Q98.90 10.53 98.87 10.56L98.87 10.56Q98.81 10.58 98.81 10.64L98.81 10.64Q98.84 10.75 98.76 10.84L98.76 10.84Q98.67 10.89 98.67 11.03L98.67 11.03Q98.67 11.12 98.64 11.14L98.64 11.14ZM121.91 24.72L122.19 24.64Q122.22 24.70 122.28 24.70L122.28 24.70L122.84 24.42L122.92 24.42Q122.89 24.44 122.89 24.47L122.89 24.47L122.98 24.44Q123.00 24.42 123.03 24.44L123.03 24.44L123.65 27.10Q123.70 27.30 123.68 27.38L123.68 27.38Q123.65 27.50 123.65 27.69L123.65 27.69Q123.65 27.89 123.62 27.97L123.62 27.97Q123.56 28.11 123.68 28.20L123.68 28.20Q123.70 28.20 123.70 28.22L123.70 28.22Q123.73 28.25 123.73 28.28L123.73 28.28L123.84 28.56Q123.93 28.76 124.10 28.78L124.10 28.78L124.52 28.95Q124.66 28.98 124.71 29.06L124.71 29.06Q124.77 29.12 124.82 29.12L124.82 29.12Q124.85 29.12 124.91 29.18L124.91 29.18L125.16 29.37L125.44 29.48L125.55 29.48Q125.61 29.43 125.69 29.48L125.69 29.48Q125.80 29.54 125.89 29.48L125.89 29.48L126.22 29.34L127.96 29.06Q127.99 29.04 128.10 29.04L128.10 29.04Q128.38 28.98 128.49 28.98L128.49 28.98Q128.83 28.90 129.14 28.90L129.14 28.90Q129.22 28.90 129.25 28.95L129.25 28.95L129.33 29.34L129.56 29.54Q129.64 29.60 129.67 29.57L129.67 29.57Q129.75 29.57 129.75 29.62L129.75 29.62L129.81 29.68Q129.84 29.68 129.92 29.60L129.92 29.60Q129.95 29.62 130.00 29.62L130.00 29.62Q130.06 29.62 130.06 29.65L130.06 29.65Q130.09 29.68 130.14 29.68L130.14 29.68L130.20 29.71Q130.28 29.65 130.45 29.71L130.45 29.71Q130.62 29.76 130.73 29.76L130.73 29.76L130.93 29.76Q131.10 29.76 131.38 29.71L131.38 29.71Q131.26 29.71 131.82 29.60L131.82 29.60Q131.91 29.57 132.02 29.57L132.02 29.57L132.19 29.37Q132.27 29.26 132.44 29.26L132.44 29.26L132.52 29.26L132.61 29.18Q132.66 29.15 132.66 29.06L132.66 29.06Q132.66 28.98 132.72 28.78L132.72 28.78L132.78 28.50Q132.78 28.45 132.83 28.28L132.83 28.28L132.92 28.08L132.92 27.89Q133 27.58 133.03 27.55L133.03 27.55Q132.94 27.47 133 27.38L133 27.38L133.39 25.42L133.78 23.91L133.87 23.83L134.48 24.42Q134.60 24.50 134.76 24.42L134.76 24.42Q134.82 24.36 134.88 24.36L134.88 24.36L135.60 24.28Q135.72 24.28 136.00 24.22L136.00 24.22L137.23 24.00Q137.45 23.94 137.56 23.88L137.56 23.88Q137.59 23.88 137.65 23.83L137.65 23.83L137.65 23.72Q137.65 23.69 137.68 23.69L137.68 23.69L138.35 23.32L138.68 23.18Q138.85 23.07 138.88 22.93L138.88 22.93L138.91 22.74Q138.88 22.71 138.91 22.68L138.91 22.68Q138.91 22.62 138.88 22.60L138.88 22.60Q138.85 22.51 138.88 22.43L138.88 22.43L138.99 22.40Q139.05 22.37 139.05 22.29L139.05 22.29L139.08 22.09Q139.08 21.87 139.10 21.78L139.10 21.78Q139.10 21.64 139.08 21.59L139.08 21.59L138.96 21.28Q138.96 21.25 138.91 21.20L138.91 21.20L138.57 21Q138.54 20.94 138.43 20.94L138.43 20.94L137.96 20.80Q137.90 20.80 137.79 20.75L137.79 20.75Q137.28 20.50 137.40 20.58L137.40 20.58L137.37 20.58Q137.14 20.50 137.09 20.52L137.09 20.52L136.81 20.47Q136.14 20.33 135.69 19.99L135.69 19.99Q135.72 20.02 135.55 19.94L135.55 19.94Q135.46 19.94 135.38 19.85L135.38 19.85Q135.32 19.80 135.27 19.80L135.27 19.80Q135.21 19.80 135.10 19.74L135.10 19.74L132.69 18.34Q132.47 18.17 132.02 17.89L132.02 17.89L131.32 17.47Q131.26 17.44 131.18 17.36L131.18 17.36Q131.12 17.33 131.15 17.25L131.15 17.25Q131.15 17.22 131.21 17.16L131.21 17.16L131.29 17.05Q131.88 16.41 131.96 16.27L131.96 16.27Q132.08 16.13 132.30 15.90L132.30 15.90Q132.36 15.82 132.64 15.54L132.64 15.54L133.84 14L133.90 13.97L134.18 13.55Q134.26 13.47 134.32 13.47L134.32 13.47L134.62 13.44Q134.76 13.41 134.88 13.30L134.88 13.30Q135.02 13.22 135.07 13.05L135.07 13.05Q135.21 12.77 135.21 12.49L135.21 12.49Q135.27 12.18 135.16 11.98L135.16 11.98Q135.16 11.93 135.10 11.87L135.10 11.87Q135.07 11.79 135.04 11.76L135.04 11.76Q134.88 11.42 134.76 11.28L134.76 11.28L134.54 10.98Q134.37 10.81 134.15 10.42L134.15 10.42Q134.06 10.28 134.06 10.16L134.06 10.16Q134.06 10.08 133.95 10.00L133.95 10.00Q133.84 9.94 133.73 9.94L133.73 9.94Q133.62 9.94 133.28 10.00L133.28 10.00L132.97 10.05Q132.94 10.05 132.94 10.08L132.94 10.08Q132.78 10.16 132.58 10.16L132.58 10.16Q132.58 10.28 132.50 10.28L132.50 10.28L130.56 10.58L129.08 10.92Q128.66 10.92 128.77 10.95L128.77 10.95Q128.55 10.72 128.44 10.64L128.44 10.64Q128.41 10.64 128.38 10.61L128.38 10.61Q128.41 10.67 128.21 10.47L128.21 10.47Q128.16 10.47 128.10 10.36L128.10 10.36Q128.13 10.36 128.13 10.33L128.13 10.33Q128.24 10.28 128.41 10.11L128.41 10.11L128.63 9.94Q128.66 9.91 128.69 9.91L128.69 9.91Q128.74 9.88 128.86 9.77L128.86 9.77Q129.22 9.46 129.61 9.30L129.61 9.30L129.72 9.24Q129.75 9.21 129.86 9.21L129.86 9.21L130.37 9.18Q130.51 9.16 130.79 9.16L130.79 9.16Q131.01 9.16 131.15 9.13L131.15 9.13L131.49 9.10Q131.94 9.04 132.13 9.04L132.13 9.04Q132.27 9.02 132.50 9.02L132.50 9.02Q132.69 8.99 133.06 8.99L133.06 8.99Q133.08 8.96 133.11 8.96L133.11 8.96Q133.31 8.93 133.76 8.93L133.76 8.93L134.40 8.90Q134.51 8.90 134.54 8.93L134.54 8.93Q134.60 8.96 134.68 8.96L134.68 8.96Q135.13 8.96 135.38 8.57L135.38 8.57Q135.46 8.43 135.55 8.40L135.55 8.40Q135.77 8.26 135.88 8.12L135.88 8.12Q135.97 7.98 136.08 7.70L136.08 7.70Q136.19 7.25 136.16 7L136.16 7L136.16 6.92Q136.19 6.69 136.00 6.33L136.00 6.33Q135.94 6.22 135.77 6.05L135.77 6.05Q135.72 5.96 135.58 5.85L135.58 5.85Q135.44 5.71 135.35 5.66L135.35 5.66L135.35 5.60Q135.35 5.49 135.24 5.43L135.24 5.43Q135.13 5.38 134.90 5.32L134.90 5.32L134.12 5.07L133.67 5.24L132.72 5.26L132.69 5.18Q132.58 4.90 132.47 4.79L132.47 4.79L132.30 4.54Q132.19 4.34 131.99 4.20L131.99 4.20L131.40 3.67L131.35 3.53Q131.32 3.44 131.24 3.42L131.24 3.42L131.12 3.42Q131.04 3.39 130.84 3.44L130.84 3.44L130.82 3.44Q130.70 3.44 130.68 3.47L130.68 3.47Q130.59 3.56 130.42 3.56L130.42 3.56L130.40 3.56Q130.26 3.64 130.23 3.70L130.23 3.70Q130.17 3.78 130.09 3.84L130.09 3.84Q129.89 3.89 129.86 4.00L129.86 4.00Q129.86 4.03 129.81 4.09L129.81 4.09L129.75 4.09Q129.58 4.03 129.58 4.20L129.58 4.20L129.53 4.37Q129.28 4.37 129.39 4.31L129.39 4.31Q129.39 4.42 129.22 4.70L129.22 4.70Q129.16 4.76 129.16 4.79L129.16 4.79L128.74 5.38Q128.52 5.60 128.46 5.63L128.46 5.63L127.04 5.80L124.60 5.99L122.00 6.33Q121.91 6.33 121.83 6.24L121.83 6.24Q121.72 6.10 121.55 5.82L121.55 5.82Q121.46 5.71 121.27 5.52L121.27 5.52Q121.16 5.40 121.07 5.35L121.07 5.35Q120.88 5.12 120.65 5.04L120.65 5.04Q120.40 4.96 120.46 4.98L120.46 4.98Q120.23 4.90 120.01 4.93L120.01 4.93Q119.98 4.96 119.95 4.96L119.95 4.96Q119.73 4.90 119.62 4.84L119.62 4.84Q119.50 4.73 119.42 4.70L119.42 4.70Q119.14 4.62 119 4.82L119 4.82Q119 4.84 118.97 4.87L118.97 4.87L118.92 4.93L118.86 4.93Q118.83 5.04 118.66 5.21L118.66 5.21L118.66 5.38L118.58 5.40L118.55 5.52Q118.55 5.54 118.47 5.54L118.47 5.54Q118.38 5.57 118.41 5.66L118.41 5.66Q118.41 5.74 118.44 5.77L118.44 5.77Q118.44 5.88 118.38 5.91L118.38 5.91Q118.36 5.91 118.33 5.96L118.33 5.96L118.24 6.02L118.16 6.02L118.30 6.61Q118.33 6.72 118.30 6.83L118.30 6.83Q118.19 6.83 117.91 6.89L117.91 6.89L117.66 6.92Q117.49 6.92 117.40 6.94L117.40 6.94L117.21 6.97Q117.10 6.97 117.01 7L117.01 7Q116.23 7.11 115.86 7.25L115.86 7.25Q115.81 7.28 115.72 7.28L115.72 7.28Q115.64 7.28 115.56 7.36L115.56 7.36Q115.58 7.36 115.58 7.39L115.58 7.39L115.61 7.42Q115.61 7.45 115.56 7.45L115.56 7.45Q115.50 7.48 115.50 7.50L115.50 7.50Q115.53 7.56 115.50 7.59L115.50 7.59L115.42 7.67L115.47 7.73L115.44 7.78Q115.44 7.81 115.42 7.84L115.42 7.84Q115.39 7.84 115.36 7.87L115.36 7.87Q115.30 7.87 115.36 7.92L115.36 7.92L115.33 8.15L115.28 8.18Q115.33 8.26 115.33 8.34L115.33 8.34Q115.30 8.37 115.28 8.37L115.28 8.37L115.30 8.62L115.28 8.68Q115.25 8.71 115.25 8.74L115.25 8.74Q115.25 8.90 115.28 8.99L115.28 8.99L115.47 9.27L115.86 9.58L116.03 9.77Q116.06 9.80 116.12 9.80L116.12 9.80Q116.23 9.86 116.28 9.91L116.28 9.91L116.34 9.97Q116.56 10.14 116.62 10.14L116.62 10.14L116.90 10.25Q116.98 10.33 117.07 10.33L117.07 10.33L117.43 10.42Q117.77 10.50 118.08 10.42L118.08 10.42Q118.16 10.42 118.27 10.36L118.27 10.36Q118.38 10.30 118.72 10.25L118.72 10.25Q118.92 10.25 119.03 10.22L119.03 10.22L119.11 10.19L119.53 10.19Q119.59 10.14 119.67 10.19L119.67 10.19L119.76 10.36Q119.81 10.44 119.95 10.50L119.95 10.50L120.06 10.50L120.20 10.58Q120.26 10.64 120.29 10.70L120.29 10.70Q120.37 10.78 120.48 10.95L120.48 10.95Q120.57 11.09 120.71 11.17L120.71 11.17L120.76 11.26L120.40 11.06L120.32 11.06Q119.95 10.92 119.62 10.92L119.62 10.92L119.50 10.92Q119.36 10.89 119.20 10.92L119.20 10.92L118.13 10.92Q117.85 10.92 117.63 11.06L117.63 11.06Q117.35 11.17 117.26 11.28L117.26 11.28Q117.07 11.48 117.04 11.59L117.04 11.59Q117.04 11.62 117.01 11.65L117.01 11.65L116.82 11.93Q116.84 12.04 116.73 12.10L116.73 12.10Q116.68 12.15 116.68 12.21L116.68 12.21Q116.73 12.26 116.73 12.32L116.73 12.32Q116.73 12.38 116.79 12.43L116.79 12.43L116.79 12.54Q116.79 12.60 116.70 12.60L116.70 12.60L116.68 12.63Q116.79 12.68 116.79 12.80L116.79 12.80L116.70 12.80Q116.68 12.80 116.68 12.82L116.68 12.82Q116.73 12.99 116.79 13.05L116.79 13.05L117.35 13.41Q117.46 13.47 117.52 13.52L117.52 13.52Q118.02 13.80 118.24 13.97L118.24 13.97Q118.44 14.06 118.50 14.20L118.50 14.20Q118.55 14.25 118.58 14.25L118.58 14.25Q118.66 14.28 118.78 14.39L118.78 14.39Q118.86 14.48 118.97 14.64L118.97 14.64Q119.03 14.67 119.11 14.76L119.11 14.76Q119.20 14.81 119.22 14.87L119.22 14.87Q119.31 14.87 119.31 14.92L119.31 14.92Q119.36 14.98 119.53 15.04L119.53 15.04L119.67 15.06Q119.76 15.06 119.78 15.09L119.78 15.09Q119.87 15.09 119.90 15.15L119.90 15.15Q119.92 15.15 119.95 15.18L119.95 15.18Q120.01 15.20 120.01 15.23L120.01 15.23Q120.04 15.29 120.15 15.29L120.15 15.29L120.62 15.29Q120.88 15.29 120.93 15.12L120.93 15.12Q121.02 14.98 121.10 14.95L121.10 14.95Q121.27 14.87 121.49 14.64L121.49 14.64Q121.60 14.53 121.77 14.25L121.77 14.25Q121.80 14.22 121.83 14.14L121.83 14.14L121.94 13.72Q122.00 13.50 122.00 13.36L122.00 13.36Q122.02 13.27 122.02 13.08L122.02 13.08L121.94 12.54Q121.86 12.29 121.69 12.12L121.69 12.12L121.63 12.07Q121.52 11.84 121.35 11.70L121.35 11.70Q121.24 11.62 121.02 11.40L121.02 11.40Q120.99 11.40 120.99 11.37L120.99 11.37L121.02 11.37Q121.24 11.42 121.32 11.40L121.32 11.40Q121.44 11.34 121.52 11.34L121.52 11.34Q121.69 11.28 121.77 11.31L121.77 11.31L121.83 11.31Q121.86 11.31 121.86 11.28L121.86 11.28Q121.91 11.23 122.02 11.23L122.02 11.23L122.19 11.23Q122.30 11.23 122.39 11.14L122.39 11.14L122.58 11.00Q122.58 10.98 122.64 10.98L122.64 10.98Q122.70 10.98 122.81 10.86L122.81 10.86L122.86 10.81L122.89 10.67Q123.06 10.61 123.14 10.42L123.14 10.42L123.17 10.42Q123.26 10.14 123.20 9.94L123.20 9.94L123.20 9.86Q123.20 9.80 123.26 9.80L123.26 9.80L125.38 9.58L125.75 9.58L124.99 10.84Q125.02 10.81 124.94 10.98L124.94 10.98Q124.91 11.00 124.91 11.09L124.91 11.09Q124.96 11.17 124.96 11.40L124.96 11.40Q124.96 11.48 125.02 11.51L125.02 11.51L125.69 10.92L126 10.75Q126.22 10.67 126.36 10.53L126.36 10.53Q126.39 10.53 126.42 10.50L126.42 10.50L126.48 10.64L126.42 10.64Q126.36 10.64 126.36 10.61L126.36 10.61Q126.28 10.67 126.34 10.78L126.34 10.78Q126.17 10.81 126.14 10.89L126.14 10.89L126.06 11.20L124.99 12.43Q124.68 12.82 124.01 13.55L124.01 13.55Q123.45 14.22 123.20 14.56L123.20 14.56L122.44 15.51Q122.42 15.51 122.36 15.62L122.36 15.62L121.94 16.16Q121.80 16.32 121.66 16.41L121.66 16.41Q121.32 16.58 120.96 16.94L120.96 16.94L120.79 17.08Q120.82 17.16 120.68 17.22L120.68 17.22Q120.65 17.22 120.65 17.19L120.65 17.19Q120.57 16.97 120.40 16.77L120.40 16.77L120.34 16.72Q120.26 16.63 120.04 16.46L120.04 16.46Q119.95 16.38 119.73 16.21L119.73 16.21L119.11 15.85Q119 15.82 118.80 15.74L118.80 15.74L118.50 15.62Q118.27 15.54 117.82 15.43L117.82 15.43Q117.54 15.37 117.43 15.37L117.43 15.37Q117.21 15.37 117.12 15.34L117.12 15.34Q116.93 15.32 116.56 15.32L116.56 15.32Q116.20 15.32 116.03 15.34L116.03 15.34Q115.84 15.40 115.72 15.54L115.72 15.54L115.61 15.65Q115.50 15.76 115.50 15.82L115.50 15.82L115.47 15.90Q115.39 15.96 115.39 16.16L115.39 16.16L115.39 16.49Q115.36 16.52 115.33 16.52L115.33 16.52Q115.42 16.63 115.44 16.74L115.44 16.74Q115.42 16.74 115.39 16.77L115.39 16.77Q115.39 16.83 115.36 16.83L115.36 16.83Q115.30 16.88 115.33 16.94L115.33 16.94Q115.36 17.02 115.28 17.05L115.28 17.05L115.22 17.11Q115.28 17.14 115.39 17.25L115.39 17.25L116.90 18.54Q117.01 18.62 117.21 18.82L117.21 18.82Q117.24 18.82 117.26 18.87L117.26 18.87L117.63 19.29Q117.71 19.38 117.88 19.60L117.88 19.60Q118.13 19.91 118.24 19.96L118.24 19.96Q118.27 19.96 118.33 20.02L118.33 20.02Q118.36 20.02 118.41 20.08L118.41 20.08Q118.80 20.22 119.08 20.19L119.08 20.19Q119.22 20.19 119.31 20.08L119.31 20.08Q119.39 19.94 119.56 19.91L119.56 19.91Q119.70 19.85 119.73 19.80L119.73 19.80Q119.76 19.77 119.78 19.77L119.78 19.77L119.84 19.74Q119.90 19.63 119.95 19.57L119.95 19.57L120.09 19.40Q120.23 19.26 120.29 19.26L120.29 19.26L120.40 18.90Q120.54 18.84 120.65 18.93L120.65 18.93L120.62 18.76Q120.62 18.73 120.60 18.70L120.60 18.70Q120.57 18.59 120.65 18.51L120.65 18.51Q120.68 18.51 120.71 18.48L120.71 18.48L120.79 18.40Q120.90 18.26 120.90 18.00L120.90 18.00Q120.90 17.89 120.85 17.67L120.85 17.67Q120.85 17.58 120.82 17.56L120.82 17.56Q120.85 17.53 120.93 17.53L120.93 17.53Q121.35 17.30 121.30 17.36L121.30 17.36Q121.38 17.28 121.60 17.22L121.60 17.22Q121.77 17.22 121.86 17.14L121.86 17.14L122.84 16.60Q122.98 16.52 123.28 16.46L123.28 16.46Q123.45 16.46 123.51 16.44L123.51 16.44L123.62 16.41Q123.70 16.44 123.82 16.38L123.82 16.38L124.01 16.35Q124.18 16.35 124.21 16.41L124.21 16.41L124.74 17.00Q125.02 17.25 125.05 17.33L125.05 17.33Q125.13 17.44 125.33 17.64L125.33 17.64L125.64 17.95Q125.72 18.03 125.75 18.09L125.75 18.09Q125.80 18.14 125.75 18.20L125.75 18.20Q125.69 18.28 125.58 18.40L125.58 18.40Q125.38 18.65 124.94 19.15L124.94 19.15Q124.71 19.43 124.54 19.60L124.54 19.60L122.67 21.67Q122.56 21.78 122.33 22.06L122.33 22.06Q122.05 22.37 121.55 23.04L121.55 23.04L121.32 23.30Q121.21 23.41 121.16 23.49L121.16 23.49Q121.04 23.72 120.79 24.00L120.79 24.00L120.26 24.70Q120.23 24.72 120.18 24.72L120.18 24.72L120.18 24.67L120.68 23.88L121.10 23.13L121.32 22.62Q121.38 22.46 121.44 22.37L121.44 22.37Q121.49 22.26 121.55 22.04L121.55 22.04Q121.55 21.95 121.58 21.90L121.58 21.90Q121.72 21.53 121.77 21.45L121.77 21.45Q121.80 21.42 121.80 21.36L121.80 21.36Q121.83 21.34 121.83 21.31L121.83 21.31L122.02 20.80Q122.08 20.72 122.02 20.66L122.02 20.66L122.14 20.22Q122.19 20.13 122.11 20.05L122.11 20.05L122.19 19.85L122.11 19.94L122.19 19.60L122.19 19.29L122.30 18.87L122.30 18.70Q122.25 18.79 122.44 18.40L122.44 18.40Q122.44 18.23 122.42 18.20L122.42 18.20Q122.39 18.14 122.33 18.12L122.33 18.12Q122.25 18.09 122.22 18.06L122.22 18.06L122.14 18.09Q122.02 18.12 121.97 18.23L121.97 18.23L121.94 18.31Q121.88 18.34 121.80 18.45L121.80 18.45L118.52 21.64L117.54 22.79L116.28 24.44L115.05 25.96Q114.86 26.10 114.83 26.10L114.83 26.10L114.66 26.18Q114.63 26.24 114.52 26.35L114.52 26.35L114.44 26.43Q114.52 26.60 114.60 26.63L114.60 26.63Q114.58 26.66 114.58 26.74L114.58 26.74Q114.52 26.80 114.55 26.82L114.55 26.82Q114.55 26.91 114.49 26.96L114.49 26.96Q114.55 27.05 114.49 27.13L114.49 27.13Q114.44 27.22 114.49 27.41L114.49 27.41Q114.55 27.47 114.49 27.55L114.49 27.55Q114.44 27.61 114.52 27.75L114.52 27.75L114.52 27.78Q114.52 27.80 114.49 27.83L114.49 27.83L114.63 28.17Q114.72 28.28 114.72 28.42L114.72 28.42Q114.74 28.70 115.00 28.95L115.00 28.95Q115.19 29.09 115.44 29.15L115.44 29.15Q115.61 29.15 115.72 29.12L115.72 29.12Q115.89 29.09 116.00 29.20L116.00 29.20Q116.09 29.37 116.28 29.46L116.28 29.46Q116.34 29.46 116.40 29.51L116.40 29.51L117.01 29.65Q117.12 29.68 117.24 29.65L117.24 29.65Q117.15 29.71 117.54 29.51L117.54 29.51Q117.60 29.46 117.63 29.46L117.63 29.46Q118.02 29.26 118.19 28.87L118.19 28.87Q118.27 28.70 118.27 28.56L118.27 28.56Q118.33 28.36 118.27 28.20L118.27 28.20L118.24 27.92L118.92 26.88L119.11 26.52Q119.22 26.38 119.25 26.21L119.25 26.21L119.73 25.48Q119.73 25.40 119.78 25.40L119.78 25.40Q119.84 25.37 119.90 25.31L119.90 25.31L120.01 25.23Q120.18 25.17 120.23 25.17L120.23 25.17L120.29 25.23Q120.23 25.28 120.18 25.28L120.18 25.28L120.18 25.34Q120.29 25.34 120.32 25.28L120.32 25.28Q120.34 25.23 120.48 25.17L120.48 25.17Q120.60 25.12 120.65 25.06L120.65 25.06Q120.79 24.92 121.18 24.70L121.18 24.70Q121.21 24.67 121.35 24.67L121.35 24.67Q121.38 24.70 121.41 24.70L121.41 24.70L121.74 24.72Q121.83 24.75 121.91 24.72L121.91 24.72ZM128.04 25.79L127.09 25.96Q126.98 25.96 126.92 25.93L126.92 25.93Q126.64 24.81 126.59 24.22L126.59 24.22L126.62 24.22Q126.76 24.33 126.92 24.36L126.92 24.36Q127.09 24.44 127.26 24.44L127.26 24.44Q127.65 24.30 127.54 24.39L127.54 24.39L127.57 24.39Q127.65 24.30 127.96 24.25L127.96 24.25L128.69 24.14Q128.74 24.08 128.80 24.08L128.80 24.08L129.78 23.91Q129.84 23.88 129.95 23.88L129.95 23.88L129.95 23.97Q129.95 24.08 129.89 24.30L129.89 24.30Q129.89 24.42 129.84 24.64L129.84 24.64L129.70 25.45Q129.70 25.51 129.67 25.51L129.67 25.51Q129.67 25.59 129.61 25.59L129.61 25.59L128.30 25.76Q128.13 25.76 128.04 25.79L128.04 25.79ZM129.22 14.31L129.50 14.22Q129.47 14.34 129.36 14.50L129.36 14.50L128.97 14.95L128.80 15.20Q128.63 15.43 128.52 15.54L128.52 15.54Q128.46 15.62 128.38 15.57L128.38 15.57L126.98 14.42Q126.84 14.31 126.76 14.17L126.76 14.17L127.29 13.75Q127.34 13.75 127.37 13.78L127.37 13.78Q127.51 13.83 127.65 13.92L127.65 13.92L127.74 14Q127.82 14 127.90 14.08L127.90 14.08L128.38 14.28Q128.55 14.34 128.66 14.34L128.66 14.34L128.88 14.36Q129.00 14.36 129.22 14.31L129.22 14.31ZM129.22 20.97Q128.63 21.06 127.46 21.28L127.46 21.28Q127.57 21.11 127.74 20.97L127.74 20.97Q127.88 20.86 127.96 20.72L127.96 20.72Q128.02 20.64 128.10 20.58L128.10 20.58Q128.18 20.47 128.35 20.30L128.35 20.30Q128.44 20.30 128.46 20.33L128.46 20.33L129.30 20.86L129.39 20.94Q129.33 20.97 129.22 20.97L129.22 20.97Z" style="null;fill:#F35593" color="rgb(243, 85, 147)" stroke="none"></path></g></g></g></g></g></g></g></g></g></g></g></g></g></svg>